Rubik-BlackItalic.ufo
<glyph name="exclam" format="1">
  <advance width="329"/>
  <unicode hex="0021"/>
  <outline>
    <contour>
      <point x="63" y="228" type="line" name="hr00" smooth="yes"/>
      <point x="48" y="228"/>
      <point x="33" y="216"/>
      <point x="30" y="201" type="curve" smooth="yes"/>
      <point x="-7" y="27" type="line" smooth="yes"/>
      <point x="-10" y="12"/>
      <point x="0" y="0"/>
      <point x="15" y="0" type="curve" smooth="yes"/>
      <point x="189" y="0" type="line" smooth="yes"/>
      <point x="204" y="0"/>
      <point x="218" y="12"/>
      <point x="221" y="27" type="curve" smooth="yes"/>
      <point x="258" y="201" type="line" smooth="yes"/>
      <point x="261" y="216"/>
      <point x="252" y="228"/>
      <point x="237" y="228" type="curve" smooth="yes"/>
    </contour>
    <contour>
      <point x="163" y="700" type="line" smooth="yes"/>
      <point x="148" y="700"/>
      <point x="134" y="688"/>
      <point x="131" y="673" type="curve" smooth="yes"/>
      <point x="50" y="295" type="line" smooth="yes"/>
      <point x="47" y="280"/>
      <point x="56" y="268"/>
      <point x="71" y="268" type="curve" smooth="yes"/>
      <point x="245" y="268" type="line" smooth="yes"/>
      <point x="260" y="268"/>
      <point x="275" y="280"/>
      <point x="278" y="295" type="curve" smooth="yes"/>
      <point x="359" y="673" type="line" smooth="yes"/>
      <point x="362" y="688"/>
      <point x="352" y="700"/>
      <point x="337" y="700" type="curve" smooth="yes"/>
    </contour>
  </outline>
</glyph>
<glyph name="dollar" format="1">
  <advance width="714"/>
  <unicode hex="0024"/>
  <outline>
    <contour>
      <point x="218" y="-100" type="curve" name="hr00"/>
      <point x="339" y="-100" type="line"/>
      <point x="354" y="-100"/>
      <point x="369" y="-88"/>
      <point x="372" y="-73" type="curve"/>
      <point x="385" y="-6" type="line"/>
      <point x="548" y="10"/>
      <point x="644" y="84"/>
      <point x="671" y="212" type="curve" smooth="yes"/>
      <point x="698" y="342"/>
      <point x="637" y="419"/>
      <point x="442" y="444" type="curve" smooth="yes"/>
      <point x="354" y="455"/>
      <point x="336" y="468"/>
      <point x="340" y="487" type="curve" smooth="yes"/>
      <point x="344" y="504"/>
      <point x="360" y="515"/>
      <point x="394" y="515" type="curve" smooth="yes"/>
      <point x="422" y="515"/>
      <point x="437" y="503"/>
      <point x="443" y="497" type="curve" smooth="yes"/>
      <point x="453" y="486"/>
      <point x="461" y="481"/>
      <point x="480" y="481" type="curve"/>
      <point x="680" y="481" type="line"/>
      <point x="691" y="481"/>
      <point x="703" y="491"/>
      <point x="705" y="503" type="curve" smooth="yes"/>
      <point x="718" y="572"/>
      <point x="640" y="663"/>
      <point x="516" y="697" type="curve"/>
      <point x="532" y="773" type="line"/>
      <point x="535" y="788"/>
      <point x="526" y="800"/>
      <point x="511" y="800" type="curve"/>
      <point x="390" y="800" type="line"/>
      <point x="375" y="800"/>
      <point x="360" y="788"/>
      <point x="357" y="773" type="curve"/>
      <point x="342" y="705" type="line"/>
      <point x="201" y="686"/>
      <point x="108" y="611"/>
      <point x="84" y="494" type="curve"/>
      <point x="55" y="361"/>
      <point x="139" y="281"/>
      <point x="293" y="260" type="curve" smooth="yes"/>
      <point x="389" y="247"/>
      <point x="417" y="237"/>
      <point x="412" y="213" type="curve" smooth="yes"/>
      <point x="408" y="195"/>
      <point x="376" y="185"/>
      <point x="331" y="185" type="curve" smooth="yes"/>
      <point x="298" y="185"/>
      <point x="278" y="193"/>
      <point x="262" y="208" type="curve" smooth="yes"/>
      <point x="250" y="219"/>
      <point x="243" y="225"/>
      <point x="222" y="225" type="curve"/>
      <point x="32" y="225" type="line"/>
      <point x="20" y="225"/>
      <point x="8" y="215"/>
      <point x="6" y="203" type="curve" smooth="yes"/>
      <point x="-12" y="110"/>
      <point x="58" y="23"/>
      <point x="211" y="-2" type="curve"/>
      <point x="197" y="-73" type="line"/>
      <point x="194" y="-88"/>
      <point x="203" y="-100"/>
    </contour>
  </outline>
</glyph>
<glyph name="comma" format="1">
  <advance width="315"/>
  <unicode hex="002C"/>
  <outline>
    <contour>
      <point x="-54" y="-51" type="line" name="hr00" smooth="yes"/>
      <point x="-58" y="-63"/>
      <point x="-48" y="-75"/>
      <point x="-37" y="-75" type="curve" smooth="yes"/>
      <point x="74" y="-75" type="line" smooth="yes"/>
      <point x="100" y="-75"/>
      <point x="115" y="-56"/>
      <point x="123" y="-43" type="curve" smooth="yes"/>
      <point x="270" y="199" type="line" smooth="yes"/>
      <point x="277" y="211"/>
      <point x="272" y="228"/>
      <point x="255" y="228" type="curve" smooth="yes"/>
      <point x="85" y="228" type="line" smooth="yes"/>
      <point x="58" y="228"/>
      <point x="41" y="207"/>
      <point x="34" y="189" type="curve" smooth="yes"/>
    </contour>
  </outline>
</glyph>
<glyph name="zero" format="1">
  <advance width="717"/>
  <unicode hex="0030"/>
  <outline>
    <contour>
      <point x="426" y="710" type="curve" name="hr00"/>
      <point x="225" y="709"/>
      <point x="120" y="604"/>
      <point x="79" y="458" type="curve" smooth="yes"/>
      <point x="63" y="401"/>
      <point x="41" y="300"/>
      <point x="34" y="246" type="curve" smooth="yes"/>
      <point x="14" y="99"/>
      <point x="123" y="-9"/>
      <point x="313" y="-10" type="curve"/>
      <point x="525" y="-9"/>
      <point x="620" y="99"/>
      <point x="662" y="246" type="curve" smooth="yes"/>
      <point x="677" y="300"/>
      <point x="699" y="401"/>
      <point x="707" y="458" type="curve" smooth="yes"/>
      <point x="728" y="604"/>
      <point x="607" y="709"/>
    </contour>
    <contour>
      <point x="446" y="452" type="curve" smooth="yes"/>
      <point x="437" y="397"/>
      <point x="418" y="308"/>
      <point x="403" y="251" type="curve" smooth="yes"/>
      <point x="393" y="214"/>
      <point x="373" y="186"/>
      <point x="335" y="186" type="curve" smooth="yes"/>
      <point x="297" y="186"/>
      <point x="289" y="214"/>
      <point x="295" y="251" type="curve" smooth="yes"/>
      <point x="304" y="308"/>
      <point x="323" y="397"/>
      <point x="338" y="452" type="curve" smooth="yes"/>
      <point x="347" y="486"/>
      <point x="365" y="516"/>
      <point x="405" y="517" type="curve"/>
      <point x="445" y="516"/>
      <point x="451" y="486"/>
    </contour>
  </outline>
</glyph>
<glyph name="eight" format="1">
  <advance width="710"/>
  <unicode hex="0038"/>
  <outline>
    <contour>
      <point x="422" y="710" type="curve" name="hr00" smooth="yes"/>
      <point x="223" y="710"/>
      <point x="127" y="612"/>
      <point x="105" y="506" type="curve" smooth="yes"/>
      <point x="93" y="451"/>
      <point x="110" y="402"/>
      <point x="138" y="370" type="curve"/>
      <point x="84" y="342"/>
      <point x="34" y="290"/>
      <point x="20" y="224" type="curve" smooth="yes"/>
      <point x="-4" y="110"/>
      <point x="95" y="-10"/>
      <point x="309" y="-10" type="curve" smooth="yes"/>
      <point x="532" y="-10"/>
      <point x="632" y="94"/>
      <point x="656" y="207" type="curve" smooth="yes"/>
      <point x="671" y="274"/>
      <point x="650" y="333"/>
      <point x="602" y="370" type="curve"/>
      <point x="650" y="401"/>
      <point x="676" y="438"/>
      <point x="687" y="493" type="curve" smooth="yes"/>
      <point x="710" y="599"/>
      <point x="619" y="710"/>
    </contour>
    <contour>
      <point x="408" y="217" type="curve" smooth="yes"/>
      <point x="400" y="180"/>
      <point x="365" y="158"/>
      <point x="325" y="158" type="curve" smooth="yes"/>
      <point x="285" y="158"/>
      <point x="260" y="180"/>
      <point x="268" y="217" type="curve" smooth="yes"/>
      <point x="275" y="254"/>
      <point x="310" y="276"/>
      <point x="350" y="276" type="curve" smooth="yes"/>
      <point x="390" y="276"/>
      <point x="415" y="254"/>
    </contour>
    <contour>
      <point x="459" y="487" type="curve" smooth="yes"/>
      <point x="453" y="457"/>
      <point x="424" y="433"/>
      <point x="384" y="433" type="curve" smooth="yes"/>
      <point x="344" y="433"/>
      <point x="326" y="457"/>
      <point x="332" y="487" type="curve" smooth="yes"/>
      <point x="338" y="517"/>
      <point x="366" y="541"/>
      <point x="406" y="541" type="curve" smooth="yes"/>
      <point x="446" y="541"/>
      <point x="465" y="517"/>
    </contour>
  </outline>
</glyph>
<glyph name="equal" format="1">
  <advance width="564"/>
  <unicode hex="003D"/>
  <outline>
    <contour>
      <point x="125" y="510" type="line" name="hr00" smooth="yes"/>
      <point x="110" y="510"/>
      <point x="95" y="498"/>
      <point x="92" y="483" type="curve" smooth="yes"/>
      <point x="68" y="367" type="line" smooth="yes"/>
      <point x="64" y="352"/>
      <point x="74" y="340"/>
      <point x="89" y="340" type="curve" smooth="yes"/>
      <point x="494" y="340" type="line" smooth="yes"/>
      <point x="509" y="340"/>
      <point x="523" y="352"/>
      <point x="527" y="367" type="curve" smooth="yes"/>
      <point x="551" y="483" type="line" smooth="yes"/>
      <point x="554" y="498"/>
      <point x="545" y="510"/>
      <point x="530" y="510" type="curve" smooth="yes"/>
    </contour>
    <contour>
      <point x="72" y="260" type="line" smooth="yes"/>
      <point x="57" y="260"/>
      <point x="42" y="248"/>
      <point x="39" y="233" type="curve" smooth="yes"/>
      <point x="14" y="117" type="line" smooth="yes"/>
      <point x="11" y="102"/>
      <point x="21" y="90"/>
      <point x="36" y="90" type="curve" smooth="yes"/>
      <point x="441" y="90" type="line" smooth="yes"/>
      <point x="456" y="90"/>
      <point x="470" y="102"/>
      <point x="473" y="117" type="curve" smooth="yes"/>
      <point x="498" y="233" type="line" smooth="yes"/>
      <point x="501" y="248"/>
      <point x="492" y="260"/>
      <point x="477" y="260" type="curve" smooth="yes"/>
    </contour>
  </outline>
</glyph>
<glyph name="greater" format="1">
  <advance width="539"/>
  <unicode hex="003E"/>
  <outline>
    <contour>
      <point x="522" y="329" type="line" name="hr00" smooth="yes"/>
      <point x="517" y="308"/>
      <point x="504" y="299"/>
      <point x="484" y="287" type="curve" smooth="yes"/>
      <point x="26" y="17" type="line" smooth="yes"/>
      <point x="21" y="14"/>
      <point x="17" y="14"/>
      <point x="15" y="14" type="curve" smooth="yes"/>
      <point x="3" y="14"/>
      <point x="-4" y="23"/>
      <point x="-2" y="35" type="curve" smooth="yes"/>
      <point x="36" y="211" type="line" smooth="yes"/>
      <point x="40" y="231"/>
      <point x="64" y="247"/>
      <point x="77" y="255" type="curve" smooth="yes"/>
      <point x="270" y="367" type="line"/>
      <point x="124" y="483" type="line" smooth="yes"/>
      <point x="114" y="491"/>
      <point x="98" y="505"/>
      <point x="102" y="526" type="curve" smooth="yes"/>
      <point x="132" y="665" type="line" smooth="yes"/>
      <point x="135" y="677"/>
      <point x="142" y="686"/>
      <point x="154" y="686" type="curve" smooth="yes"/>
      <point x="158" y="686"/>
      <point x="164" y="686"/>
      <point x="168" y="683" type="curve" smooth="yes"/>
      <point x="510" y="413" type="line" smooth="yes"/>
      <point x="526" y="401"/>
      <point x="535" y="392"/>
      <point x="531" y="371" type="curve" smooth="yes"/>
    </contour>
  </outline>
</glyph>
<glyph name="A" format="1">
  <advance width="761"/>
  <unicode hex="0041"/>
  <outline>
    <contour>
      <point x="355" y="700" type="line" name="hr00" smooth="yes"/>
      <point x="328" y="700"/>
      <point x="311" y="681"/>
      <point x="303" y="667" type="curve"/>
      <point x="-55" y="29" type="line" smooth="yes"/>
      <point x="-63" y="15"/>
      <point x="-55" y="0"/>
      <point x="-40" y="0" type="curve" smooth="yes"/>
      <point x="155" y="0" type="line" smooth="yes"/>
      <point x="181" y="0"/>
      <point x="192" y="14"/>
      <point x="199" y="25" type="curve" smooth="yes"/>
      <point x="237" y="91" type="line"/>
      <point x="452" y="91" type="line"/>
      <point x="462" y="25" type="line" smooth="yes"/>
      <point x="463" y="14"/>
      <point x="470" y="0"/>
      <point x="496" y="0" type="curve" smooth="yes"/>
      <point x="676" y="0" type="line" smooth="yes"/>
      <point x="691" y="0"/>
      <point x="705" y="11"/>
      <point x="703" y="29" type="curve"/>
      <point x="615" y="667" type="line"/>
      <point x="613" y="682"/>
      <point x="604" y="700"/>
      <point x="577" y="700" type="curve" smooth="yes"/>
    </contour>
    <contour>
      <point x="329" y="286" type="line"/>
      <point x="425" y="472" type="line"/>
      <point x="442" y="286" type="line"/>
    </contour>
  </outline>
</glyph>
<glyph name="C" format="1">
  <advance width="731"/>
  <unicode hex="0043"/>
  <outline>
    <contour>
      <point x="327" y="434" type="curve" name="hr00" smooth="yes"/>
      <point x="342" y="495"/>
      <point x="374" y="515"/>
      <point x="418" y="515" type="curve" smooth="yes"/>
      <point x="452" y="515"/>
      <point x="476" y="504"/>
      <point x="481" y="461" type="curve"/>
      <point x="485" y="439"/>
      <point x="490" y="432"/>
      <point x="512" y="432" type="curve" smooth="yes"/>
      <point x="716" y="432" type="line" smooth="yes"/>
      <point x="728" y="432"/>
      <point x="740" y="442"/>
      <point x="743" y="454" type="curve" smooth="yes"/>
      <point x="779" y="636"/>
      <point x="600" y="710"/>
      <point x="440" y="710" type="curve" smooth="yes"/>
      <point x="243" y="710"/>
      <point x="115" y="625"/>
      <point x="68" y="439" type="curve" smooth="yes"/>
      <point x="54" y="382"/>
      <point x="39" y="315"/>
      <point x="30" y="261" type="curve" smooth="yes"/>
      <point x="-3" y="70"/>
      <point x="145" y="-10"/>
      <point x="327" y="-10" type="curve" smooth="yes"/>
      <point x="507" y="-10"/>
      <point x="657" y="64"/>
      <point x="699" y="246" type="curve"/>
      <point x="701" y="258"/>
      <point x="693" y="268"/>
      <point x="681" y="268" type="curve" smooth="yes"/>
      <point x="477" y="268" type="line" smooth="yes"/>
      <point x="455" y="268"/>
      <point x="446" y="262"/>
      <point x="434" y="239" type="curve" smooth="yes"/>
      <point x="413" y="199"/>
      <point x="382" y="185"/>
      <point x="348" y="185" type="curve" smooth="yes"/>
      <point x="304" y="185"/>
      <point x="280" y="205"/>
      <point x="291" y="266" type="curve" smooth="yes"/>
      <point x="301" y="323"/>
      <point x="313" y="379"/>
    </contour>
  </outline>
</glyph>
<glyph name="K" format="1">
  <advance width="712"/>
  <unicode hex="004B"/>
  <outline>
    <contour>
      <point x="517" y="344" type="line" name="hr00"/>
      <point x="776" y="667" type="line" smooth="yes"/>
      <point x="787" y="680"/>
      <point x="782" y="700"/>
      <point x="764" y="700" type="curve" smooth="yes"/>
      <point x="538" y="700" type="line" smooth="yes"/>
      <point x="516" y="700"/>
      <point x="502" y="689"/>
      <point x="494" y="678" type="curve"/>
      <point x="337" y="475" type="line"/>
      <point x="380" y="673" type="line" smooth="yes"/>
      <point x="383" y="688"/>
      <point x="373" y="700"/>
      <point x="358" y="700" type="curve" smooth="yes"/>
      <point x="167" y="700" type="line" smooth="yes"/>
      <point x="152" y="700"/>
      <point x="138" y="688"/>
      <point x="135" y="673" type="curve" smooth="yes"/>
      <point x="-3" y="27" type="line" smooth="yes"/>
      <point x="-6" y="12"/>
      <point x="4" y="0"/>
      <point x="19" y="0" type="curve" smooth="yes"/>
      <point x="210" y="0" type="line" smooth="yes"/>
      <point x="225" y="0"/>
      <point x="239" y="12"/>
      <point x="242" y="27" type="curve" smooth="yes"/>
      <point x="288" y="241" type="line"/>
      <point x="373" y="23" type="line"/>
      <point x="378" y="10"/>
      <point x="389" y="0"/>
      <point x="410" y="0" type="curve" smooth="yes"/>
      <point x="623" y="0" type="line" smooth="yes"/>
      <point x="638" y="0"/>
      <point x="657" y="15"/>
      <point x="649" y="33" type="curve" smooth="yes"/>
    </contour>
  </outline>
</glyph>
<glyph name="P" format="1">
  <advance width="705"/>
  <unicode hex="0050"/>
  <outline>
    <contour>
      <point x="167" y="700" type="line" name="hr00" smooth="yes"/>
      <point x="152" y="700"/>
      <point x="138" y="688"/>
      <point x="135" y="673" type="curve" smooth="yes"/>
      <point x="-3" y="27" type="line" smooth="yes"/>
      <point x="-6" y="12"/>
      <point x="4" y="0"/>
      <point x="19" y="0" type="curve" smooth="yes"/>
      <point x="225" y="0" type="line" smooth="yes"/>
      <point x="240" y="0"/>
      <point x="254" y="12"/>
      <point x="257" y="27" type="curve" smooth="yes"/>
      <point x="298" y="218" type="line"/>
      <point x="388" y="218" type="line" smooth="yes"/>
      <point x="579" y="218"/>
      <point x="684" y="289"/>
      <point x="719" y="455" type="curve" smooth="yes"/>
      <point x="754" y="621"/>
      <point x="621" y="700"/>
      <point x="450" y="700" type="curve" smooth="yes"/>
    </contour>
    <contour>
      <point x="356" y="514" type="line"/>
      <point x="426" y="514" type="line" smooth="yes"/>
      <point x="462" y="514"/>
      <point x="465" y="482"/>
      <point x="460" y="457" type="curve" smooth="yes"/>
      <point x="451" y="418"/>
      <point x="423" y="403"/>
      <point x="402" y="403" type="curve" smooth="yes"/>
      <point x="332" y="403" type="line"/>
    </contour>
  </outline>
</glyph>
<glyph name="U" format="1">
  <advance width="745"/>
  <unicode hex="0055"/>
  <outline>
    <contour>
      <point x="558" y="700" type="line" name="hr00" smooth="yes"/>
      <point x="543" y="700"/>
      <point x="529" y="688"/>
      <point x="526" y="673" type="curve" smooth="yes"/>
      <point x="439" y="268" type="line" smooth="yes"/>
      <point x="429" y="218"/>
      <point x="398" y="191"/>
      <point x="349" y="191" type="curve" smooth="yes"/>
      <point x="300" y="191"/>
      <point x="281" y="218"/>
      <point x="291" y="268" type="curve" smooth="yes"/>
      <point x="378" y="673" type="line" smooth="yes"/>
      <point x="381" y="688"/>
      <point x="371" y="700"/>
      <point x="356" y="700" type="curve" smooth="yes"/>
      <point x="160" y="700" type="line" smooth="yes"/>
      <point x="145" y="700"/>
      <point x="131" y="688"/>
      <point x="128" y="673" type="curve" smooth="yes"/>
      <point x="41" y="264" type="line" smooth="yes"/>
      <point x="0" y="75"/>
      <point x="155" y="-10"/>
      <point x="327" y="-10" type="curve" smooth="yes"/>
      <point x="537" y="-10"/>
      <point x="648" y="75"/>
      <point x="689" y="264" type="curve" smooth="yes"/>
      <point x="776" y="673" type="line" smooth="yes"/>
      <point x="779" y="688"/>
      <point x="769" y="700"/>
      <point x="754" y="700" type="curve" smooth="yes"/>
    </contour>
  </outline>
</glyph>
<glyph name="X" format="1">
  <advance width="738"/>
  <unicode hex="0058"/>
  <outline>
    <contour>
      <point x="806" y="667" type="line" name="hr00"/>
      <point x="817" y="679"/>
      <point x="813" y="700"/>
      <point x="794" y="700" type="curve"/>
      <point x="577" y="700" type="line"/>
      <point x="551" y="700"/>
      <point x="536" y="682"/>
      <point x="530" y="675" type="curve"/>
      <point x="419" y="543" type="line"/>
      <point x="354" y="675" type="line"/>
      <point x="351" y="682"/>
      <point x="343" y="700"/>
      <point x="317" y="700" type="curve"/>
      <point x="120" y="700" type="line"/>
      <point x="98" y="700"/>
      <point x="87" y="682"/>
      <point x="94" y="667" type="curve"/>
      <point x="246" y="361" type="line"/>
      <point x="-51" y="33" type="line"/>
      <point x="-63" y="20"/>
      <point x="-56" y="0"/>
      <point x="-39" y="0" type="curve"/>
      <point x="199" y="0" type="line"/>
      <point x="225" y="0"/>
      <point x="240" y="18"/>
      <point x="244" y="23" type="curve"/>
      <point x="353" y="144" type="line"/>
      <point x="414" y="23" type="line"/>
      <point x="416" y="18"/>
      <point x="425" y="0"/>
      <point x="451" y="0" type="curve"/>
      <point x="647" y="0" type="line"/>
      <point x="670" y="0"/>
      <point x="680" y="18"/>
      <point x="673" y="33" type="curve"/>
      <point x="525" y="331" type="line"/>
    </contour>
  </outline>
</glyph>
<glyph name="bracketleft" format="1">
  <advance width="431"/>
  <unicode hex="005B"/>
  <outline>
    <contour>
      <point x="179" y="776" type="line" name="hr00" smooth="yes"/>
      <point x="164" y="776"/>
      <point x="150" y="764"/>
      <point x="147" y="749" type="curve" smooth="yes"/>
      <point x="-41" y="-132" type="line" smooth="yes"/>
      <point x="-44" y="-147"/>
      <point x="-34" y="-159"/>
      <point x="-19" y="-159" type="curve" smooth="yes"/>
      <point x="284" y="-159" type="line" smooth="yes"/>
      <point x="299" y="-159"/>
      <point x="313" y="-147"/>
      <point x="316" y="-132" type="curve" smooth="yes"/>
      <point x="348" y="15" type="line" smooth="yes"/>
      <point x="351" y="30"/>
      <point x="341" y="42"/>
      <point x="326" y="42" type="curve" smooth="yes"/>
      <point x="207" y="42" type="line"/>
      <point x="325" y="593" type="line"/>
      <point x="444" y="593" type="line" smooth="yes"/>
      <point x="459" y="593"/>
      <point x="473" y="605"/>
      <point x="476" y="620" type="curve" smooth="yes"/>
      <point x="504" y="749" type="line" smooth="yes"/>
      <point x="507" y="764"/>
      <point x="497" y="776"/>
      <point x="482" y="776" type="curve" smooth="yes"/>
    </contour>
  </outline>
</glyph>
<glyph name="f" format="1">
  <advance width="491"/>
  <unicode hex="0066"/>
  <outline>
    <contour>
      <point x="391" y="532" type="line" name="hr00" smooth="yes"/>
      <point x="395" y="553"/>
      <point x="411" y="565"/>
      <point x="441" y="565" type="curve" smooth="yes"/>
      <point x="522" y="565" type="line" smooth="yes"/>
      <point x="537" y="565"/>
      <point x="551" y="577"/>
      <point x="554" y="592" type="curve" smooth="yes"/>
      <point x="580" y="713" type="line" smooth="yes"/>
      <point x="583" y="728"/>
      <point x="574" y="740"/>
      <point x="559" y="740" type="curve" smooth="yes"/>
      <point x="446" y="740" type="line" smooth="yes"/>
      <point x="301" y="740"/>
      <point x="198" y="701"/>
      <point x="163" y="537" type="curve" smooth="yes"/>
      <point x="159" y="520" type="line"/>
      <point x="90" y="520" type="line" smooth="yes"/>
      <point x="75" y="520"/>
      <point x="60" y="508"/>
      <point x="57" y="493" type="curve" smooth="yes"/>
      <point x="32" y="372" type="line" smooth="yes"/>
      <point x="28" y="357"/>
      <point x="38" y="345"/>
      <point x="53" y="345" type="curve" smooth="yes"/>
      <point x="122" y="345" type="line"/>
      <point x="54" y="27" type="line" smooth="yes"/>
      <point x="51" y="12"/>
      <point x="61" y="0"/>
      <point x="76" y="0" type="curve" smooth="yes"/>
      <point x="251" y="0" type="line" smooth="yes"/>
      <point x="266" y="0"/>
      <point x="280" y="12"/>
      <point x="283" y="27" type="curve" smooth="yes"/>
      <point x="351" y="345" type="line"/>
      <point x="465" y="345" type="line" smooth="yes"/>
      <point x="480" y="345"/>
      <point x="494" y="357"/>
      <point x="498" y="372" type="curve" smooth="yes"/>
      <point x="523" y="493" type="line" smooth="yes"/>
      <point x="526" y="508"/>
      <point x="517" y="520"/>
      <point x="502" y="520" type="curve" smooth="yes"/>
      <point x="388" y="520" type="line"/>
    </contour>
  </outline>
</glyph>
<glyph name="g" format="1">
  <advance width="665"/>
  <unicode hex="0067"/>
  <outline>
    <contour>
      <point x="20" y="249" type="curve"/>
      <point x="-6" y="82"/>
      <point x="68" y="23"/>
      <point x="194" y="23" type="curve" smooth="yes"/>
      <point x="252" y="23"/>
      <point x="290" y="39"/>
      <point x="327" y="66" type="curve"/>
      <point x="313" y="0" type="line"/>
      <point x="304" y="-40"/>
      <point x="286" y="-59"/>
      <point x="257" y="-59" type="curve" smooth="yes"/>
      <point x="233" y="-59"/>
      <point x="226" y="-51"/>
      <point x="220" y="-34" type="curve" smooth="yes"/>
      <point x="217" y="-22"/>
      <point x="212" y="-14"/>
      <point x="197" y="-14" type="curve" name="hr01"/>
      <point x="2" y="-14" type="line"/>
      <point x="-13" y="-14"/>
      <point x="-29" y="-26"/>
      <point x="-31" y="-41" type="curve" smooth="yes"/>
      <point x="-37" y="-84"/>
      <point x="22" y="-220"/>
      <point x="238" y="-220" type="curve" smooth="yes"/>
      <point x="406" y="-220"/>
      <point x="525" y="-151"/>
      <point x="561" y="17" type="curve"/>
      <point x="661" y="493" type="line"/>
      <point x="664" y="508"/>
      <point x="655" y="520"/>
      <point x="640" y="520" type="curve"/>
      <point x="465" y="520" type="line"/>
      <point x="450" y="520"/>
      <point x="435" y="508"/>
      <point x="432" y="493" type="curve"/>
      <point x="425" y="462" type="line"/>
      <point x="401" y="502"/>
      <point x="347" y="530"/>
      <point x="282" y="530" type="curve" name="hr02" smooth="yes"/>
      <point x="156" y="530"/>
      <point x="73" y="457"/>
      <point x="31" y="300" type="curve"/>
      <point x="26" y="280"/>
      <point x="24" y="269"/>
    </contour>
    <contour>
      <point x="376" y="301" type="curve" smooth="yes"/>
      <point x="375" y="291"/>
      <point x="368" y="257"/>
      <point x="365" y="247" type="curve" smooth="yes"/>
      <point x="355" y="215"/>
      <point x="338" y="197"/>
      <point x="304" y="197" type="curve" smooth="yes"/>
      <point x="267" y="197"/>
      <point x="262" y="219"/>
      <point x="267" y="255" type="curve" smooth="yes"/>
      <point x="268" y="265"/>
      <point x="272" y="283"/>
      <point x="275" y="293" type="curve"/>
      <point x="285" y="329"/>
      <point x="300" y="351"/>
      <point x="337" y="351" type="curve" name="hr03" smooth="yes"/>
      <point x="371" y="351"/>
      <point x="380" y="333"/>
    </contour>
  </outline>
</glyph>
<glyph name="h" format="1">
  <advance width="685"/>
  <unicode hex="0068"/>
  <outline>
    <contour>
      <point x="294" y="296" type="line" name="hr00" smooth="yes"/>
      <point x="302" y="332"/>
      <point x="325" y="351"/>
      <point x="357" y="351" type="curve" smooth="yes"/>
      <point x="389" y="351"/>
      <point x="403" y="332"/>
      <point x="395" y="296" type="curve" smooth="yes"/>
      <point x="338" y="27" type="line" smooth="yes"/>
      <point x="335" y="12"/>
      <point x="345" y="0"/>
      <point x="360" y="0" type="curve" smooth="yes"/>
      <point x="556" y="0" type="line" smooth="yes"/>
      <point x="571" y="0"/>
      <point x="585" y="12"/>
      <point x="588" y="27" type="curve" smooth="yes"/>
      <point x="647" y="303" type="line" smooth="yes"/>
      <point x="680" y="461"/>
      <point x="597" y="530"/>
      <point x="486" y="530" type="curve" smooth="yes"/>
      <point x="424" y="530"/>
      <point x="374" y="506"/>
      <point x="331" y="468" type="curve"/>
      <point x="377" y="683" type="line" smooth="yes"/>
      <point x="380" y="698"/>
      <point x="370" y="710"/>
      <point x="355" y="710" type="curve" smooth="yes"/>
      <point x="160" y="710" type="line" smooth="yes"/>
      <point x="145" y="710"/>
      <point x="131" y="698"/>
      <point x="128" y="683" type="curve" smooth="yes"/>
      <point x="-12" y="27" type="line" smooth="yes"/>
      <point x="-15" y="12"/>
      <point x="-5" y="0"/>
      <point x="10" y="0" type="curve" smooth="yes"/>
      <point x="205" y="0" type="line" smooth="yes"/>
      <point x="220" y="0"/>
      <point x="234" y="12"/>
      <point x="237" y="27" type="curve" smooth="yes"/>
    </contour>
  </outline>
</glyph>
<glyph name="j" format="1">
  <advance width="345"/>
  <unicode hex="006A"/>
  <outline>
    <contour>
      <point x="-49" y="-190" type="line" name="hr00" smooth="yes"/>
      <point x="106" y="-190"/>
      <point x="211" y="-121"/>
      <point x="243" y="29" type="curve" smooth="yes"/>
      <point x="341" y="493" type="line" smooth="yes"/>
      <point x="344" y="508"/>
      <point x="335" y="520"/>
      <point x="320" y="520" type="curve" smooth="yes"/>
      <point x="132" y="520" type="line" smooth="yes"/>
      <point x="117" y="520"/>
      <point x="102" y="508"/>
      <point x="99" y="493" type="curve" smooth="yes"/>
      <point x="2" y="35" type="line" smooth="yes"/>
      <point x="-5" y="4"/>
      <point x="-22" y="-15"/>
      <point x="-52" y="-15" type="curve" smooth="yes"/>
      <point x="-109" y="-15" type="line" smooth="yes"/>
      <point x="-124" y="-15"/>
      <point x="-138" y="-27"/>
      <point x="-141" y="-42" type="curve" smooth="yes"/>
      <point x="-167" y="-163" type="line" smooth="yes"/>
      <point x="-170" y="-178"/>
      <point x="-161" y="-190"/>
      <point x="-146" y="-190" type="curve" smooth="yes"/>
    </contour>
    <contour>
      <point x="385" y="723" type="line" smooth="yes"/>
      <point x="388" y="738"/>
      <point x="379" y="750"/>
      <point x="364" y="750" type="curve" smooth="yes"/>
      <point x="186" y="750" type="line" smooth="yes"/>
      <point x="171" y="750"/>
      <point x="156" y="738"/>
      <point x="153" y="723" type="curve" smooth="yes"/>
      <point x="127" y="602" type="line" smooth="yes"/>
      <point x="124" y="587"/>
      <point x="134" y="575"/>
      <point x="149" y="575" type="curve" smooth="yes"/>
      <point x="327" y="575" type="line" smooth="yes"/>
      <point x="342" y="575"/>
      <point x="356" y="587"/>
      <point x="359" y="602" type="curve" smooth="yes"/>
    </contour>
  </outline>
</glyph>
<glyph name="k" format="1">
  <advance width="650"/>
  <unicode hex="006B"/>
  <outline>
    <contour>
      <point x="357" y="683" type="line" name="hr00" smooth="yes"/>
      <point x="360" y="698"/>
      <point x="350" y="710"/>
      <point x="335" y="710" type="curve" smooth="yes"/>
      <point x="160" y="710" type="line" smooth="yes"/>
      <point x="145" y="710"/>
      <point x="131" y="698"/>
      <point x="128" y="683" type="curve" smooth="yes"/>
      <point x="-12" y="27" type="line" smooth="yes"/>
      <point x="-15" y="12"/>
      <point x="-5" y="0"/>
      <point x="10" y="0" type="curve" smooth="yes"/>
      <point x="185" y="0" type="line" smooth="yes"/>
      <point x="200" y="0"/>
      <point x="214" y="12"/>
      <point x="217" y="27" type="curve" smooth="yes"/>
      <point x="253" y="203" type="line"/>
      <point x="327" y="17" type="line" smooth="yes"/>
      <point x="331" y="7"/>
      <point x="340" y="0"/>
      <point x="355" y="0" type="curve" smooth="yes"/>
      <point x="555" y="0" type="line" smooth="yes"/>
      <point x="579" y="0"/>
      <point x="590" y="19"/>
      <point x="582" y="37" type="curve" smooth="yes"/>
      <point x="484" y="268" type="line"/>
      <point x="662" y="481" type="line"/>
      <point x="677" y="497"/>
      <point x="676" y="520"/>
      <point x="651" y="520" type="curve" smooth="yes"/>
      <point x="439" y="520" type="line" smooth="yes"/>
      <point x="421" y="520"/>
      <point x="410" y="508"/>
      <point x="406" y="503" type="curve" smooth="yes"/>
      <point x="288" y="359" type="line"/>
    </contour>
  </outline>
</glyph>
<glyph name="l" format="1">
  <advance width="324"/>
  <unicode hex="006C"/>
  <outline>
    <contour>
      <point x="189" y="0" type="line" name="hr00" smooth="yes"/>
      <point x="204" y="0"/>
      <point x="218" y="12"/>
      <point x="221" y="27" type="curve" smooth="yes"/>
      <point x="361" y="683" type="line" smooth="yes"/>
      <point x="364" y="698"/>
      <point x="354" y="710"/>
      <point x="339" y="710" type="curve" smooth="yes"/>
      <point x="160" y="710" type="line" smooth="yes"/>
      <point x="145" y="710"/>
      <point x="131" y="698"/>
      <point x="128" y="683" type="curve" smooth="yes"/>
      <point x="-12" y="27" type="line" smooth="yes"/>
      <point x="-15" y="12"/>
      <point x="-5" y="0"/>
      <point x="10" y="0" type="curve" smooth="yes"/>
    </contour>
  </outline>
</glyph>
<glyph name="m" format="1">
  <advance width="938"/>
  <unicode hex="006D"/>
  <outline>
    <contour>
      <point x="640" y="351" type="curve" smooth="yes"/>
      <point x="665" y="351"/>
      <point x="676" y="334"/>
      <point x="670" y="302" type="curve"/>
      <point x="611" y="27" type="line" smooth="yes"/>
      <point x="608" y="12"/>
      <point x="618" y="0"/>
      <point x="633" y="0" type="curve" smooth="yes"/>
      <point x="809" y="0" type="line" smooth="yes"/>
      <point x="824" y="0"/>
      <point x="838" y="12"/>
      <point x="841" y="27" type="curve" smooth="yes"/>
      <point x="901" y="307" type="line" smooth="yes"/>
      <point x="934" y="465"/>
      <point x="865" y="530"/>
      <point x="754" y="530" type="curve" smooth="yes"/>
      <point x="683" y="530"/>
      <point x="635" y="494"/>
      <point x="594" y="448" type="curve"/>
      <point x="575" y="497"/>
      <point x="533" y="530"/>
      <point x="453" y="530" type="curve" smooth="yes"/>
      <point x="371" y="530"/>
      <point x="329" y="490"/>
      <point x="299" y="460" type="curve"/>
      <point x="306" y="493" type="line" smooth="yes"/>
      <point x="309" y="508"/>
      <point x="300" y="520"/>
      <point x="285" y="520" type="curve" name="hr01" smooth="yes"/>
      <point x="120" y="520" type="line" smooth="yes"/>
      <point x="105" y="520"/>
      <point x="90" y="508"/>
      <point x="87" y="493" type="curve" smooth="yes"/>
      <point x="-12" y="27" type="line" smooth="yes"/>
      <point x="-15" y="12"/>
      <point x="-5" y="0"/>
      <point x="10" y="0" type="curve" smooth="yes"/>
      <point x="190" y="0" type="line" smooth="yes"/>
      <point x="205" y="0"/>
      <point x="219" y="12"/>
      <point x="222" y="27" type="curve" smooth="yes"/>
      <point x="281" y="302" type="line" smooth="yes"/>
      <point x="287" y="333"/>
      <point x="306" y="351"/>
      <point x="331" y="351" type="curve" name="hr02" smooth="yes"/>
      <point x="356" y="351"/>
      <point x="367" y="334"/>
      <point x="361" y="302" type="curve"/>
      <point x="302" y="27" type="line" smooth="yes"/>
      <point x="299" y="12"/>
      <point x="309" y="0"/>
      <point x="324" y="0" type="curve" smooth="yes"/>
      <point x="500" y="0" type="line" smooth="yes"/>
      <point x="515" y="0"/>
      <point x="529" y="12"/>
      <point x="532" y="27" type="curve" smooth="yes"/>
      <point x="591" y="302" type="line"/>
      <point x="597" y="334"/>
      <point x="615" y="351"/>
    </contour>
  </outline>
</glyph>
<glyph name="w" format="1">
  <advance width="872"/>
  <unicode hex="0077"/>
  <outline>
    <contour>
      <point x="522" y="520" type="line" name="hr00" smooth="yes"/>
      <point x="542" y="520"/>
      <point x="550" y="507"/>
      <point x="551" y="496" type="curve" smooth="yes"/>
      <point x="572" y="288" type="line"/>
      <point x="677" y="496" type="line" smooth="yes"/>
      <point x="682" y="507"/>
      <point x="696" y="520"/>
      <point x="716" y="520" type="curve" smooth="yes"/>
      <point x="880" y="520" type="line" smooth="yes"/>
      <point x="898" y="520"/>
      <point x="903" y="502"/>
      <point x="896" y="488" type="curve"/>
      <point x="652" y="25" type="line" smooth="yes"/>
      <point x="645" y="13"/>
      <point x="634" y="0"/>
      <point x="614" y="0" type="curve" smooth="yes"/>
      <point x="480" y="0" type="line" smooth="yes"/>
      <point x="460" y="0"/>
      <point x="453" y="13"/>
      <point x="452" y="25" type="curve" smooth="yes"/>
      <point x="414" y="227" type="line"/>
      <point x="299" y="25" type="line" smooth="yes"/>
      <point x="292" y="13"/>
      <point x="281" y="0"/>
      <point x="261" y="0" type="curve" smooth="yes"/>
      <point x="132" y="0" type="line" smooth="yes"/>
      <point x="112" y="0"/>
      <point x="105" y="13"/>
      <point x="104" y="25" type="curve" smooth="yes"/>
      <point x="56" y="488" type="line" smooth="yes"/>
      <point x="54" y="504"/>
      <point x="70" y="520"/>
      <point x="86" y="520" type="curve" smooth="yes"/>
      <point x="235" y="520" type="line" smooth="yes"/>
      <point x="255" y="520"/>
      <point x="263" y="507"/>
      <point x="264" y="496" type="curve" smooth="yes"/>
      <point x="281" y="288" type="line"/>
      <point x="390" y="496" type="line" smooth="yes"/>
      <point x="395" y="507"/>
      <point x="409" y="520"/>
      <point x="429" y="520" type="curve" smooth="yes"/>
    </contour>
  </outline>
</glyph>
<glyph name="y" format="1">
  <advance width="646"/>
  <unicode hex="0079"/>
  <outline>
    <contour>
      <point x="55" y="489" type="line" name="hr00" smooth="yes"/>
      <point x="52" y="505"/>
      <point x="64" y="520"/>
      <point x="86" y="520" type="curve" smooth="yes"/>
      <point x="245" y="520" type="line" smooth="yes"/>
      <point x="265" y="520"/>
      <point x="270" y="507"/>
      <point x="272" y="496" type="curve" smooth="yes"/>
      <point x="311" y="268" type="line"/>
      <point x="449" y="496" type="line" smooth="yes"/>
      <point x="456" y="508"/>
      <point x="468" y="520"/>
      <point x="488" y="520" type="curve" smooth="yes"/>
      <point x="665" y="520" type="line" smooth="yes"/>
      <point x="684" y="520"/>
      <point x="687" y="502"/>
      <point x="680" y="489" type="curve"/>
      <point x="259" y="-166" type="line" smooth="yes"/>
      <point x="252" y="-178"/>
      <point x="239" y="-190"/>
      <point x="219" y="-190" type="curve" smooth="yes"/>
      <point x="45" y="-190" type="line" smooth="yes"/>
      <point x="29" y="-190"/>
      <point x="22" y="-173"/>
      <point x="31" y="-159" type="curve" smooth="yes"/>
      <point x="152" y="33" type="line"/>
    </contour>
  </outline>
</glyph>
<glyph name="bar" format="1">
  <advance width="291"/>
  <unicode hex="007C"/>
  <outline>
    <contour>
      <point x="206" y="896" type="line" name="hr00"/>
      <point x="191" y="896"/>
      <point x="176" y="884"/>
      <point x="173" y="869" type="curve" smooth="yes"/>
      <point x="-50" y="-181" type="line" smooth="yes"/>
      <point x="-53" y="-196"/>
      <point x="-44" y="-208"/>
      <point x="-29" y="-208" type="curve" smooth="yes"/>
      <point x="105" y="-208" type="line" smooth="yes"/>
      <point x="120" y="-208"/>
      <point x="135" y="-196"/>
      <point x="138" y="-181" type="curve" smooth="yes"/>
      <point x="361" y="869" type="line" smooth="yes"/>
      <point x="364" y="884"/>
      <point x="355" y="896"/>
      <point x="340" y="896" type="curve" smooth="yes"/>
    </contour>
  </outline>
</glyph>
<glyph name="section" format="1">
  <advance width="638"/>
  <unicode hex="00A7"/>
  <outline>
    <contour>
      <point x="606" y="266" type="curve" smooth="yes"/>
      <point x="628" y="368"/>
      <point x="593" y="438"/>
      <point x="455" y="474" type="curve"/>
      <point x="356" y="493"/>
      <point x="355" y="514"/>
      <point x="359" y="532" type="curve" smooth="yes"/>
      <point x="362" y="547"/>
      <point x="373" y="559"/>
      <point x="388" y="559" type="curve" name="hr01" smooth="yes"/>
      <point x="429" y="559"/>
      <point x="422" y="532"/>
      <point x="451" y="532" type="curve" name="hr02" smooth="yes"/>
      <point x="617" y="532" type="line" smooth="yes"/>
      <point x="629" y="532"/>
      <point x="641" y="540"/>
      <point x="643" y="555" type="curve" smooth="yes"/>
      <point x="654" y="617"/>
      <point x="550" y="710"/>
      <point x="397" y="710" type="curve" smooth="yes"/>
      <point x="224" y="710"/>
      <point x="147" y="619"/>
      <point x="123" y="505" type="curve" smooth="yes"/>
      <point x="117" y="477"/>
      <point x="116" y="449"/>
      <point x="122" y="429" type="curve"/>
      <point x="69" y="394"/>
      <point x="41" y="358"/>
      <point x="29" y="302" type="curve" smooth="yes"/>
      <point x="8" y="200"/>
      <point x="40" y="132"/>
      <point x="177" y="96" type="curve"/>
      <point x="276" y="77"/>
      <point x="277" y="56"/>
      <point x="274" y="38" type="curve" smooth="yes"/>
      <point x="270" y="23"/>
      <point x="259" y="11"/>
      <point x="244" y="11" type="curve" smooth="yes"/>
      <point x="203" y="11"/>
      <point x="211" y="40"/>
      <point x="182" y="40" type="curve" name="hr03" smooth="yes"/>
      <point x="16" y="40" type="line" smooth="yes"/>
      <point x="4" y="40"/>
      <point x="-9" y="32"/>
      <point x="-11" y="17" type="curve" smooth="yes"/>
      <point x="-21" y="-45"/>
      <point x="82" y="-140"/>
      <point x="235" y="-140" type="curve" smooth="yes"/>
      <point x="408" y="-140"/>
      <point x="485" y="-49"/>
      <point x="509" y="65" type="curve" smooth="yes"/>
      <point x="515" y="93"/>
      <point x="512" y="112"/>
      <point x="507" y="133" type="curve"/>
      <point x="558" y="167"/>
      <point x="594" y="210"/>
    </contour>
    <contour>
      <point x="237" y="308" type="curve" smooth="yes"/>
      <point x="239" y="317"/>
      <point x="250" y="332"/>
      <point x="269" y="327" type="curve" smooth="yes"/>
      <point x="376" y="299"/>
      <point x="401" y="291"/>
      <point x="395" y="262" type="curve" smooth="yes"/>
      <point x="393" y="253"/>
      <point x="381" y="237"/>
      <point x="363" y="242" type="curve" smooth="yes"/>
      <point x="255" y="271"/>
      <point x="231" y="279"/>
    </contour>
  </outline>
</glyph>
<glyph name="plusminus" format="1">
  <advance width="575"/>
  <unicode hex="00B1"/>
  <outline>
    <contour>
      <point x="48" y="163" type="line" name="hr00" smooth="yes"/>
      <point x="33" y="163"/>
      <point x="19" y="151"/>
      <point x="15" y="136" type="curve" smooth="yes"/>
      <point x="-8" y="27" type="line" smooth="yes"/>
      <point x="-11" y="12"/>
      <point x="-1" y="0"/>
      <point x="14" y="0" type="curve" smooth="yes"/>
      <point x="438" y="0" type="line" smooth="yes"/>
      <point x="453" y="0"/>
      <point x="467" y="12"/>
      <point x="470" y="27" type="curve" smooth="yes"/>
      <point x="493" y="136" type="line" smooth="yes"/>
      <point x="497" y="151"/>
      <point x="487" y="163"/>
      <point x="472" y="163" type="curve" smooth="yes"/>
    </contour>
    <contour>
      <point x="184" y="213" type="line" smooth="yes"/>
      <point x="181" y="198"/>
      <point x="190" y="186"/>
      <point x="205" y="186" type="curve" smooth="yes"/>
      <point x="327" y="186" type="line" smooth="yes"/>
      <point x="342" y="186"/>
      <point x="357" y="198"/>
      <point x="360" y="213" type="curve" smooth="yes"/>
      <point x="390" y="354" type="line"/>
      <point x="523" y="354" type="line" smooth="yes"/>
      <point x="538" y="354"/>
      <point x="552" y="366"/>
      <point x="555" y="381" type="curve" smooth="yes"/>
      <point x="579" y="490" type="line" smooth="yes"/>
      <point x="582" y="505"/>
      <point x="572" y="517"/>
      <point x="557" y="517" type="curve" smooth="yes"/>
      <point x="424" y="517" type="line"/>
      <point x="453" y="653" type="line" smooth="yes"/>
      <point x="456" y="668"/>
      <point x="447" y="680"/>
      <point x="432" y="680" type="curve" smooth="yes"/>
      <point x="310" y="680" type="line" smooth="yes"/>
      <point x="295" y="680"/>
      <point x="280" y="668"/>
      <point x="277" y="653" type="curve" smooth="yes"/>
      <point x="248" y="517" type="line"/>
      <point x="113" y="517" type="line" smooth="yes"/>
      <point x="98" y="517"/>
      <point x="84" y="505"/>
      <point x="81" y="490" type="curve" smooth="yes"/>
      <point x="57" y="381" type="line" smooth="yes"/>
      <point x="54" y="366"/>
      <point x="64" y="354"/>
      <point x="79" y="354" type="curve" smooth="yes"/>
      <point x="214" y="354" type="line"/>
    </contour>
  </outline>
</glyph>
<glyph name="acute" format="1">
  <advance width="408"/>
  <unicode hex="00B4"/>
  <outline>
    <contour>
      <point x="39" y="624" type="line" name="hr00" smooth="yes"/>
      <point x="35" y="621"/>
      <point x="32" y="616"/>
      <point x="31" y="611" type="curve" smooth="yes"/>
      <point x="29" y="601"/>
      <point x="34" y="595"/>
      <point x="44" y="595" type="curve" smooth="yes"/>
      <point x="181" y="595" type="line" smooth="yes"/>
      <point x="202" y="595"/>
      <point x="214" y="603"/>
      <point x="227" y="612" type="curve" smooth="yes"/>
      <point x="399" y="733" type="line" smooth="yes"/>
      <point x="403" y="736"/>
      <point x="406" y="740"/>
      <point x="407" y="745" type="curve" smooth="yes"/>
      <point x="409" y="757"/>
      <point x="404" y="765"/>
      <point x="392" y="765" type="curve" smooth="yes"/>
      <point x="206" y="765" type="line" smooth="yes"/>
      <point x="191" y="765"/>
      <point x="184" y="763"/>
      <point x="165" y="746" type="curve"/>
    </contour>
  </outline>
</glyph>
<glyph name="mu" format="1">
  <advance width="697"/>
  <unicode hex="00B5"/>
  <outline>
    <contour>
      <point x="-47" y="-172" type="line" name="hr00" smooth="yes"/>
      <point x="-50" y="-187"/>
      <point x="-41" y="-199"/>
      <point x="-26" y="-199" type="curve" smooth="yes"/>
      <point x="170" y="-199" type="line" smooth="yes"/>
      <point x="185" y="-199"/>
      <point x="200" y="-187"/>
      <point x="203" y="-172" type="curve" smooth="yes"/>
      <point x="240" y="0" type="line"/>
      <point x="290" y="6"/>
      <point x="334" y="23"/>
      <point x="367" y="60" type="curve"/>
      <point x="360" y="27" type="line" smooth="yes"/>
      <point x="357" y="12"/>
      <point x="367" y="0"/>
      <point x="382" y="0" type="curve" smooth="yes"/>
      <point x="557" y="0" type="line" smooth="yes"/>
      <point x="572" y="0"/>
      <point x="586" y="12"/>
      <point x="589" y="27" type="curve" smooth="yes"/>
      <point x="688" y="493" type="line" smooth="yes"/>
      <point x="691" y="508"/>
      <point x="682" y="520"/>
      <point x="667" y="520" type="curve" smooth="yes"/>
      <point x="477" y="520" type="line" smooth="yes"/>
      <point x="462" y="520"/>
      <point x="447" y="508"/>
      <point x="444" y="493" type="curve" smooth="yes"/>
      <point x="387" y="224" type="line" smooth="yes"/>
      <point x="379" y="188"/>
      <point x="357" y="169"/>
      <point x="325" y="169" type="curve" smooth="yes"/>
      <point x="293" y="169"/>
      <point x="279" y="188"/>
      <point x="287" y="224" type="curve" smooth="yes"/>
      <point x="344" y="493" type="line" smooth="yes"/>
      <point x="347" y="508"/>
      <point x="338" y="520"/>
      <point x="323" y="520" type="curve" smooth="yes"/>
      <point x="127" y="520" type="line" smooth="yes"/>
      <point x="112" y="520"/>
      <point x="97" y="508"/>
      <point x="94" y="493" type="curve" smooth="yes"/>
    </contour>
  </outline>
</glyph>
<glyph name="ae" format="1">
  <advance width="935"/>
  <unicode hex="00E6"/>
  <outline>
    <contour>
      <point x="-15" y="149" type="curve" smooth="yes"/>
      <point x="-34" y="59"/>
      <point x="50" y="-10"/>
      <point x="165" y="-10" type="curve" smooth="yes"/>
      <point x="246" y="-10"/>
      <point x="328" y="14"/>
      <point x="375" y="54" type="curve"/>
      <point x="419" y="10"/>
      <point x="488" y="-10"/>
      <point x="571" y="-10" type="curve" smooth="yes"/>
      <point x="766" y="-10"/>
      <point x="851" y="94"/>
      <point x="865" y="145" type="curve" smooth="yes"/>
      <point x="869" y="158"/>
      <point x="861" y="167"/>
      <point x="848" y="167" type="curve" name="hr01" smooth="yes"/>
      <point x="659" y="167" type="line" smooth="yes"/>
      <point x="643" y="167"/>
      <point x="638" y="165"/>
      <point x="623" y="153" type="curve" smooth="yes"/>
      <point x="610" y="142"/>
      <point x="602" y="135"/>
      <point x="590" y="135" type="curve" name="hr02" smooth="yes"/>
      <point x="561" y="135"/>
      <point x="556" y="156"/>
      <point x="564" y="196" type="curve" smooth="yes"/>
      <point x="565" y="201" type="line"/>
      <point x="863" y="201" type="line" smooth="yes"/>
      <point x="878" y="201"/>
      <point x="893" y="213"/>
      <point x="896" y="228" type="curve" smooth="yes"/>
      <point x="902" y="258" type="line" smooth="yes"/>
      <point x="934" y="405"/>
      <point x="851" y="530"/>
      <point x="665" y="530" type="curve" smooth="yes"/>
      <point x="604" y="530"/>
      <point x="551" y="519"/>
      <point x="506" y="499" type="curve"/>
      <point x="467" y="519"/>
      <point x="416" y="530"/>
      <point x="353" y="530" type="curve" smooth="yes"/>
      <point x="176" y="530"/>
      <point x="82" y="431"/>
      <point x="68" y="380" type="curve" smooth="yes"/>
      <point x="65" y="367"/>
      <point x="73" y="358"/>
      <point x="86" y="358" type="curve" smooth="yes"/>
      <point x="256" y="358" type="line" smooth="yes"/>
      <point x="288" y="358"/>
      <point x="297" y="390"/>
      <point x="331" y="390" type="curve" name="hr03" smooth="yes"/>
      <point x="359" y="390"/>
      <point x="358" y="375"/>
      <point x="351" y="339" type="curve"/>
      <point x="241" y="322" type="line"/>
      <point x="103" y="299"/>
      <point x="6" y="246"/>
    </contour>
    <contour>
      <point x="246" y="138" type="curve" smooth="yes"/>
      <point x="221" y="138"/>
      <point x="211" y="151"/>
      <point x="214" y="166" type="curve" smooth="yes"/>
      <point x="217" y="180"/>
      <point x="229" y="195"/>
      <point x="266" y="203" type="curve" smooth="yes"/>
      <point x="327" y="216" type="line"/>
      <point x="316" y="162"/>
      <point x="285" y="138"/>
    </contour>
    <contour>
      <point x="645" y="390" type="curve" smooth="yes"/>
      <point x="671" y="390"/>
      <point x="681" y="371"/>
      <point x="672" y="326" type="curve"/>
      <point x="592" y="326" type="line"/>
      <point x="601" y="371"/>
      <point x="619" y="390"/>
    </contour>
  </outline>
</glyph>
<glyph name="oslash" format="1">
  <advance width="666"/>
  <unicode hex="00F8"/>
  <outline>
    <contour>
      <point x="374" y="530" type="curve" name="hr00" smooth="yes"/>
      <point x="191" y="530"/>
      <point x="88" y="454"/>
      <point x="47" y="307" type="curve" smooth="yes"/>
      <point x="38" y="277"/>
      <point x="31" y="244"/>
      <point x="27" y="215" type="curve"/>
      <point x="11" y="209" type="line"/>
      <point x="-6" y="203"/>
      <point x="-14" y="194"/>
      <point x="-18" y="176" type="curve"/>
      <point x="-33" y="108" type="line"/>
      <point x="-35" y="96"/>
      <point x="-28" y="87"/>
      <point x="-16" y="87" type="curve" smooth="yes"/>
      <point x="-14" y="87"/>
      <point x="-10" y="88"/>
      <point x="-4" y="90" type="curve"/>
      <point x="37" y="105" type="line"/>
      <point x="68" y="29"/>
      <point x="154" y="-10"/>
      <point x="279" y="-10" type="curve" smooth="yes"/>
      <point x="473" y="-10"/>
      <point x="566" y="66"/>
      <point x="607" y="213" type="curve" smooth="yes"/>
      <point x="615" y="243"/>
      <point x="623" y="279"/>
      <point x="628" y="316" type="curve"/>
      <point x="641" y="321" type="line"/>
      <point x="658" y="327"/>
      <point x="666" y="336"/>
      <point x="670" y="354" type="curve"/>
      <point x="684" y="422" type="line"/>
      <point x="687" y="434"/>
      <point x="680" y="443"/>
      <point x="668" y="443" type="curve" smooth="yes"/>
      <point x="666" y="443"/>
      <point x="661" y="442"/>
      <point x="656" y="440" type="curve"/>
      <point x="610" y="423" type="line"/>
      <point x="573" y="494"/>
      <point x="486" y="530"/>
    </contour>
    <contour>
      <point x="363" y="218" type="curve" smooth="yes"/>
      <point x="350" y="171"/>
      <point x="341" y="150"/>
      <point x="303" y="150" type="curve" smooth="yes"/>
      <point x="274" y="150"/>
      <point x="268" y="162"/>
      <point x="269" y="188" type="curve"/>
      <point x="364" y="222" type="line"/>
      <point x="363" y="220"/>
      <point x="363" y="219"/>
    </contour>
    <contour>
      <point x="350" y="370" type="curve" smooth="yes"/>
      <point x="373" y="370"/>
      <point x="383" y="361"/>
      <point x="384" y="343" type="curve"/>
      <point x="293" y="310" type="line"/>
      <point x="304" y="349"/>
      <point x="314" y="370"/>
    </contour>
  </outline>
</glyph>
<glyph name="ldot" format="1">
  <advance width="512"/>
  <unicode hex="0140"/>
  <outline>
    <contour>
      <point x="384" y="449" type="line" name="hr00"/>
      <point x="371" y="449"/>
      <point x="359" y="439"/>
      <point x="356" y="426" type="curve" smooth="yes"/>
      <point x="328" y="295" type="line" smooth="yes"/>
      <point x="325" y="282"/>
      <point x="333" y="272"/>
      <point x="346" y="272" type="curve" smooth="yes"/>
      <point x="477" y="272" type="line" smooth="yes"/>
      <point x="490" y="272"/>
      <point x="502" y="282"/>
      <point x="505" y="295" type="curve" smooth="yes"/>
      <point x="533" y="426" type="line" smooth="yes"/>
      <point x="536" y="439"/>
      <point x="528" y="449"/>
      <point x="515" y="449" type="curve" smooth="yes"/>
    </contour>
    <component base="l"/>
  </outline>
</glyph>
<glyph name="Eng" format="1">
  <advance width="739"/>
  <unicode hex="014A"/>
  <outline>
    <contour>
      <point x="242" y="-49" type="curve" name="hr00"/>
      <point x="210" y="-198" type="line" smooth="yes"/>
      <point x="207" y="-213"/>
      <point x="217" y="-225"/>
      <point x="232" y="-225" type="curve" smooth="yes"/>
      <point x="278" y="-225" type="line" smooth="yes"/>
      <point x="480" y="-225"/>
      <point x="591" y="-145"/>
      <point x="627" y="26" type="curve" smooth="yes"/>
      <point x="765" y="673" type="line" smooth="yes"/>
      <point x="768" y="688"/>
      <point x="758" y="700"/>
      <point x="743" y="700" type="curve" smooth="yes"/>
      <point x="562" y="700" type="line" smooth="yes"/>
      <point x="547" y="700"/>
      <point x="533" y="688"/>
      <point x="530" y="673" type="curve" smooth="yes"/>
      <point x="472" y="400" type="line"/>
      <point x="361" y="677" type="line"/>
      <point x="359" y="684"/>
      <point x="352" y="700"/>
      <point x="325" y="700" type="curve" smooth="yes"/>
      <point x="167" y="700" type="line" smooth="yes"/>
      <point x="152" y="700"/>
      <point x="138" y="688"/>
      <point x="135" y="673" type="curve" smooth="yes"/>
      <point x="-3" y="27" type="line" smooth="yes"/>
      <point x="-6" y="12"/>
      <point x="4" y="0"/>
      <point x="19" y="0" type="curve" smooth="yes"/>
      <point x="200" y="0" type="line" smooth="yes"/>
      <point x="215" y="0"/>
      <point x="229" y="12"/>
      <point x="232" y="27" type="curve" smooth="yes"/>
      <point x="286" y="278" type="line"/>
      <point x="394" y="36" type="line"/>
      <point x="387" y="2"/>
      <point x="358" y="-22"/>
      <point x="315" y="-22" type="curve" smooth="yes"/>
      <point x="275" y="-22" type="line" smooth="yes"/>
      <point x="260" y="-22"/>
      <point x="245" y="-34"/>
    </contour>
  </outline>
</glyph>
<glyph name="Uogonek" format="1">
  <advance width="744"/>
  <unicode hex="0172"/>
  <outline>
    <contour>
      <point x="558" y="700" type="line" name="hr00"/>
      <point x="543" y="700"/>
      <point x="529" y="688"/>
      <point x="526" y="673" type="curve"/>
      <point x="439" y="268" type="line"/>
      <point x="429" y="218"/>
      <point x="398" y="191"/>
      <point x="349" y="191" type="curve" smooth="yes"/>
      <point x="300" y="191"/>
      <point x="281" y="218"/>
      <point x="291" y="268" type="curve"/>
      <point x="378" y="673" type="line"/>
      <point x="381" y="688"/>
      <point x="371" y="700"/>
      <point x="356" y="700" type="curve"/>
      <point x="160" y="700" type="line"/>
      <point x="145" y="700"/>
      <point x="131" y="688"/>
      <point x="128" y="673" type="curve"/>
      <point x="41" y="264" type="line"/>
      <point x="8" y="114"/>
      <point x="98" y="30"/>
      <point x="222" y="1" type="curve"/>
      <point x="218" y="-11"/>
      <point x="214" y="-25"/>
      <point x="211" y="-39" type="curve" smooth="yes"/>
      <point x="191" y="-134"/>
      <point x="236" y="-220"/>
      <point x="357" y="-220" type="curve"/>
      <point x="361" y="-220" type="line"/>
      <point x="376" y="-220"/>
      <point x="390" y="-208"/>
      <point x="393" y="-193" type="curve"/>
      <point x="408" y="-125" type="line"/>
      <point x="411" y="-110"/>
      <point x="402" y="-98"/>
      <point x="387" y="-98" type="curve"/>
      <point x="377" y="-98" type="line"/>
      <point x="338" y="-98"/>
      <point x="333" y="-70"/>
      <point x="337" y="-49" type="curve" smooth="yes"/>
      <point x="342" y="-28"/>
      <point x="356" y="-11"/>
      <point x="395" y="-7" type="curve" smooth="yes"/>
      <point x="561" y="10"/>
      <point x="652" y="96"/>
      <point x="689" y="264" type="curve"/>
      <point x="776" y="673" type="line"/>
      <point x="779" y="688"/>
      <point x="769" y="700"/>
      <point x="754" y="700" type="curve"/>
    </contour>
  </outline>
</glyph>
<glyph name="dotlessj" format="1">
  <advance width="481"/>
  <unicode hex="0237"/>
  <outline>
    <contour>
      <point x="78" y="-190" type="line" name="hr00"/>
      <point x="223" y="-190"/>
      <point x="354" y="-94"/>
      <point x="388" y="70" type="curve" smooth="yes"/>
      <point x="478" y="493" type="line" smooth="yes"/>
      <point x="481" y="508"/>
      <point x="472" y="520"/>
      <point x="457" y="520" type="curve" smooth="yes"/>
      <point x="99" y="520" type="line" smooth="yes"/>
      <point x="84" y="520"/>
      <point x="69" y="508"/>
      <point x="66" y="493" type="curve" smooth="yes"/>
      <point x="39" y="364" type="line" smooth="yes"/>
      <point x="36" y="349"/>
      <point x="45" y="337"/>
      <point x="60" y="337" type="curve" smooth="yes"/>
      <point x="201" y="337" type="line"/>
      <point x="144" y="70" type="line" smooth="yes"/>
      <point x="138" y="39"/>
      <point x="121" y="20"/>
      <point x="91" y="20" type="curve" smooth="yes"/>
      <point x="-10" y="20" type="line" smooth="yes"/>
      <point x="-25" y="20"/>
      <point x="-40" y="8"/>
      <point x="-43" y="-7" type="curve" smooth="yes"/>
      <point x="-75" y="-163" type="line" smooth="yes"/>
      <point x="-78" y="-178"/>
      <point x="-69" y="-190"/>
      <point x="-55" y="-190" type="curve" smooth="yes"/>
    </contour>
  </outline>
</glyph>
<glyph name="caron" format="1">
  <advance width="460"/>
  <unicode hex="02C7"/>
  <outline>
    <contour>
      <point x="272" y="595" type="line" name="hr00" smooth="yes"/>
      <point x="287" y="595"/>
      <point x="297" y="600"/>
      <point x="313" y="614" type="curve" smooth="yes"/>
      <point x="451" y="736" type="line" smooth="yes"/>
      <point x="455" y="739"/>
      <point x="458" y="744"/>
      <point x="459" y="749" type="curve" smooth="yes"/>
      <point x="461" y="759"/>
      <point x="456" y="765"/>
      <point x="446" y="765" type="curve" smooth="yes"/>
      <point x="372" y="765" type="line" smooth="yes"/>
      <point x="359" y="765"/>
      <point x="346" y="765"/>
      <point x="331" y="758" type="curve" smooth="yes"/>
      <point x="230" y="716" type="line"/>
      <point x="147" y="758" type="line" smooth="yes"/>
      <point x="134" y="765"/>
      <point x="121" y="765"/>
      <point x="108" y="765" type="curve" smooth="yes"/>
      <point x="50" y="765" type="line" smooth="yes"/>
      <point x="40" y="765"/>
      <point x="33" y="759"/>
      <point x="31" y="749" type="curve" smooth="yes"/>
      <point x="30" y="744"/>
      <point x="31" y="739"/>
      <point x="33" y="736" type="curve" smooth="yes"/>
      <point x="119" y="614" type="line" smooth="yes"/>
      <point x="129" y="600"/>
      <point x="137" y="595"/>
      <point x="152" y="595" type="curve" smooth="yes"/>
    </contour>
  </outline>
</glyph>
<glyph name="tilde" format="1">
  <advance width="467"/>
  <unicode hex="02DC"/>
  <outline>
    <contour>
      <point x="307" y="590" type="curve" smooth="yes"/>
      <point x="416" y="590"/>
      <point x="456" y="700"/>
      <point x="466" y="746" type="curve" smooth="yes"/>
      <point x="468" y="756"/>
      <point x="463" y="765"/>
      <point x="451" y="765" type="curve" smooth="yes"/>
      <point x="367" y="765" type="line" smooth="yes"/>
      <point x="345" y="765"/>
      <point x="341" y="734"/>
      <point x="311" y="734" type="curve" smooth="yes"/>
      <point x="272" y="734"/>
      <point x="250" y="770"/>
      <point x="190" y="770" type="curve" name="hr01" smooth="yes"/>
      <point x="80" y="770"/>
      <point x="41" y="659"/>
      <point x="31" y="613" type="curve" smooth="yes"/>
      <point x="29" y="603"/>
      <point x="36" y="595"/>
      <point x="46" y="595" type="curve" smooth="yes"/>
      <point x="130" y="595" type="line" smooth="yes"/>
      <point x="152" y="595"/>
      <point x="156" y="626"/>
      <point x="187" y="626" type="curve" smooth="yes"/>
      <point x="226" y="626"/>
      <point x="247" y="590"/>
    </contour>
  </outline>
</glyph>
<glyph name="afii10020" format="1">
  <advance width="626"/>
  <unicode hex="0413"/>
  <outline>
    <contour>
      <point x="351" y="495" type="line" name="hr00"/>
      <point x="251" y="27" type="line" smooth="yes"/>
      <point x="248" y="12"/>
      <point x="234" y="0"/>
      <point x="219" y="0" type="curve" smooth="yes"/>
      <point x="19" y="0" type="line" smooth="yes"/>
      <point x="4" y="0"/>
      <point x="-6" y="12"/>
      <point x="-3" y="27" type="curve" smooth="yes"/>
      <point x="135" y="673" type="line" smooth="yes"/>
      <point x="138" y="688"/>
      <point x="152" y="700"/>
      <point x="167" y="700" type="curve" smooth="yes"/>
      <point x="671" y="700" type="line" smooth="yes"/>
      <point x="686" y="700"/>
      <point x="696" y="688"/>
      <point x="693" y="673" type="curve" smooth="yes"/>
      <point x="660" y="522" type="line" smooth="yes"/>
      <point x="657" y="507"/>
      <point x="643" y="495"/>
      <point x="628" y="495" type="curve" smooth="yes"/>
    </contour>
  </outline>
</glyph>
<glyph name="afii10024" format="1">
  <advance width="1030"/>
  <unicode hex="0416"/>
  <outline>
    <contour>
      <point x="360" y="673" type="line" name="hr00" smooth="yes"/>
      <point x="357" y="680"/>
      <point x="349" y="698"/>
      <point x="323" y="698" type="curve" smooth="yes"/>
      <point x="126" y="698" type="line" smooth="yes"/>
      <point x="104" y="698"/>
      <point x="93" y="680"/>
      <point x="100" y="665" type="curve"/>
      <point x="238" y="400" type="line"/>
      <point x="-52" y="33" type="line" smooth="yes"/>
      <point x="-64" y="20"/>
      <point x="-57" y="0"/>
      <point x="-40" y="0" type="curve" smooth="yes"/>
      <point x="198" y="0" type="line" smooth="yes"/>
      <point x="224" y="0"/>
      <point x="239" y="18"/>
      <point x="243" y="23" type="curve" smooth="yes"/>
      <point x="390" y="229" type="line"/>
      <point x="347" y="27" type="line" smooth="yes"/>
      <point x="344" y="12"/>
      <point x="354" y="0"/>
      <point x="369" y="0" type="curve" smooth="yes"/>
      <point x="540" y="0" type="line" smooth="yes"/>
      <point x="555" y="0"/>
      <point x="569" y="12"/>
      <point x="572" y="27" type="curve" smooth="yes"/>
      <point x="615" y="228" type="line"/>
      <point x="717" y="23" type="line" smooth="yes"/>
      <point x="719" y="18"/>
      <point x="728" y="0"/>
      <point x="754" y="0" type="curve" smooth="yes"/>
      <point x="950" y="0" type="line" smooth="yes"/>
      <point x="973" y="0"/>
      <point x="983" y="18"/>
      <point x="976" y="33" type="curve" smooth="yes"/>
      <point x="821" y="343" type="line"/>
      <point x="1081" y="667" type="line"/>
      <point x="1092" y="679"/>
      <point x="1088" y="700"/>
      <point x="1069" y="700" type="curve" smooth="yes"/>
      <point x="852" y="700" type="line" smooth="yes"/>
      <point x="826" y="700"/>
      <point x="811" y="682"/>
      <point x="805" y="675" type="curve" smooth="yes"/>
      <point x="673" y="503" type="line"/>
      <point x="710" y="673" type="line" smooth="yes"/>
      <point x="713" y="688"/>
      <point x="703" y="700"/>
      <point x="688" y="700" type="curve" smooth="yes"/>
      <point x="517" y="700" type="line" smooth="yes"/>
      <point x="502" y="700"/>
      <point x="488" y="688"/>
      <point x="485" y="673" type="curve" smooth="yes"/>
      <point x="448" y="503" type="line"/>
    </contour>
  </outline>
</glyph>
<glyph name="afii10045" format="1">
  <advance width="1038"/>
  <unicode hex="042B"/>
  <outline>
    <contour>
      <point x="894" y="0" type="line" name="hr00" smooth="yes"/>
      <point x="909" y="0"/>
      <point x="923" y="12"/>
      <point x="926" y="27" type="curve" smooth="yes"/>
      <point x="1064" y="673" type="line" smooth="yes"/>
      <point x="1067" y="688"/>
      <point x="1057" y="700"/>
      <point x="1042" y="700" type="curve" smooth="yes"/>
      <point x="838" y="700" type="line" smooth="yes"/>
      <point x="823" y="700"/>
      <point x="809" y="688"/>
      <point x="806" y="673" type="curve" smooth="yes"/>
      <point x="668" y="27" type="line" smooth="yes"/>
      <point x="665" y="12"/>
      <point x="675" y="0"/>
      <point x="690" y="0" type="curve" smooth="yes"/>
    </contour>
    <contour>
      <point x="19" y="0" type="line" smooth="yes"/>
      <point x="4" y="0"/>
      <point x="-6" y="12"/>
      <point x="-3" y="27" type="curve" smooth="yes"/>
      <point x="135" y="673" type="line" smooth="yes"/>
      <point x="138" y="688"/>
      <point x="152" y="700"/>
      <point x="167" y="700" type="curve" smooth="yes"/>
      <point x="373" y="700" type="line" smooth="yes"/>
      <point x="388" y="700"/>
      <point x="398" y="688"/>
      <point x="395" y="673" type="curve" smooth="yes"/>
      <point x="354" y="482" type="line"/>
      <point x="419" y="482" type="line" smooth="yes"/>
      <point x="585" y="482"/>
      <point x="710" y="402"/>
      <point x="675" y="236" type="curve" smooth="yes"/>
      <point x="639" y="70"/>
      <point x="543" y="0"/>
      <point x="337" y="0" type="curve" smooth="yes"/>
    </contour>
    <contour>
      <point x="286" y="186" type="line"/>
      <point x="356" y="186" type="line" smooth="yes"/>
      <point x="392" y="186"/>
      <point x="409" y="218"/>
      <point x="414" y="243" type="curve" smooth="yes"/>
      <point x="422" y="282"/>
      <point x="401" y="297"/>
      <point x="380" y="297" type="curve" smooth="yes"/>
      <point x="310" y="297" type="line"/>
    </contour>
  </outline>
</glyph>
<glyph name="afii10048" format="1">
  <advance width="1109"/>
  <unicode hex="042E"/>
  <outline>
    <contour>
      <point x="1102" y="436" type="curve" smooth="yes"/>
      <point x="1132" y="611"/>
      <point x="982" y="710"/>
      <point x="806" y="710" type="curve" smooth="yes"/>
      <point x="601" y="710"/>
      <point x="490" y="621"/>
      <point x="441" y="463" type="curve"/>
      <point x="340" y="463" type="line"/>
      <point x="385" y="673" type="line"/>
      <point x="388" y="688"/>
      <point x="378" y="700"/>
      <point x="363" y="700" type="curve" name="hr01"/>
      <point x="167" y="700" type="line"/>
      <point x="152" y="700"/>
      <point x="138" y="688"/>
      <point x="135" y="673" type="curve"/>
      <point x="-3" y="27" type="line"/>
      <point x="-6" y="11"/>
      <point x="4" y="0"/>
      <point x="19" y="0" type="curve"/>
      <point x="215" y="0" type="line"/>
      <point x="230" y="0"/>
      <point x="244" y="12"/>
      <point x="247" y="27" type="curve"/>
      <point x="293" y="243" type="line"/>
      <point x="394" y="243" type="line"/>
      <point x="376" y="75"/>
      <point x="522" y="-10"/>
      <point x="693" y="-10" type="curve" name="hr02" smooth="yes"/>
      <point x="909" y="-10"/>
      <point x="1019" y="81"/>
      <point x="1065" y="260" type="curve"/>
      <point x="1078" y="314"/>
      <point x="1092" y="379"/>
    </contour>
    <contour>
      <point x="658" y="266" type="curve" smooth="yes"/>
      <point x="668" y="323"/>
      <point x="680" y="379"/>
      <point x="694" y="434" type="curve" smooth="yes"/>
      <point x="708" y="490"/>
      <point x="742" y="515"/>
      <point x="785" y="515" type="curve" smooth="yes"/>
      <point x="828" y="515"/>
      <point x="852" y="490"/>
      <point x="842" y="434" type="curve" smooth="yes"/>
      <point x="832" y="379"/>
      <point x="820" y="323"/>
      <point x="806" y="266" type="curve" smooth="yes"/>
      <point x="792" y="210"/>
      <point x="759" y="185"/>
      <point x="715" y="185" type="curve" smooth="yes"/>
      <point x="671" y="185"/>
      <point x="648" y="210"/>
    </contour>
  </outline>
</glyph>
<glyph name="afii10068" format="1">
  <advance width="509"/>
  <unicode hex="0433"/>
  <outline>
    <contour>
      <point x="119" y="520" type="line" name="hr00" smooth="yes"/>
      <point x="104" y="520"/>
      <point x="89" y="508"/>
      <point x="86" y="493" type="curve" smooth="yes"/>
      <point x="-12" y="27" type="line" smooth="yes"/>
      <point x="-15" y="12"/>
      <point x="-5" y="0"/>
      <point x="10" y="0" type="curve" smooth="yes"/>
      <point x="185" y="0" type="line" smooth="yes"/>
      <point x="200" y="0"/>
      <point x="214" y="12"/>
      <point x="217" y="27" type="curve" smooth="yes"/>
      <point x="285" y="345" type="line"/>
      <point x="478" y="345" type="line" smooth="yes"/>
      <point x="493" y="345"/>
      <point x="507" y="357"/>
      <point x="511" y="372" type="curve" smooth="yes"/>
      <point x="536" y="493" type="line" smooth="yes"/>
      <point x="539" y="508"/>
      <point x="530" y="520"/>
      <point x="515" y="520" type="curve" smooth="yes"/>
    </contour>
  </outline>
</glyph>
<glyph name="afii10073" format="1">
  <advance width="575"/>
  <unicode hex="0437"/>
  <outline>
    <contour>
      <point x="170" y="219" type="curve"/>
      <point x="168" y="208"/>
      <point x="174" y="197"/>
      <point x="186" y="197" type="curve" smooth="yes"/>
      <point x="251" y="197" type="line" smooth="yes"/>
      <point x="285" y="197"/>
      <point x="289" y="183"/>
      <point x="286" y="167" type="curve" smooth="yes"/>
      <point x="283" y="151"/>
      <point x="270" y="141"/>
      <point x="240" y="141" type="curve" smooth="yes"/>
      <point x="201" y="141"/>
      <point x="200" y="145"/>
      <point x="191" y="154" type="curve" smooth="yes"/>
      <point x="185" y="159"/>
      <point x="183" y="166"/>
      <point x="166" y="166" type="curve" name="hr01" smooth="yes"/>
      <point x="9" y="166" type="line" smooth="yes"/>
      <point x="0" y="166"/>
      <point x="-9" y="158"/>
      <point x="-11" y="149" type="curve" smooth="yes"/>
      <point x="-23" y="90"/>
      <point x="29" y="-13"/>
      <point x="220" y="-13" type="curve" smooth="yes"/>
      <point x="391" y="-13"/>
      <point x="493" y="55"/>
      <point x="513" y="147" type="curve" smooth="yes"/>
      <point x="520" y="180"/>
      <point x="512" y="228"/>
      <point x="458" y="251" type="curve"/>
      <point x="520" y="276"/>
      <point x="551" y="325"/>
      <point x="558" y="358" type="curve" smooth="yes"/>
      <point x="577" y="450"/>
      <point x="466" y="530"/>
      <point x="315" y="530" type="curve" smooth="yes"/>
      <point x="124" y="530"/>
      <point x="48" y="427"/>
      <point x="36" y="368" type="curve" smooth="yes"/>
      <point x="34" y="359"/>
      <point x="39" y="351"/>
      <point x="48" y="351" type="curve" smooth="yes"/>
      <point x="205" y="351" type="line" smooth="yes"/>
      <point x="222" y="351"/>
      <point x="228" y="358"/>
      <point x="236" y="363" type="curve" smooth="yes"/>
      <point x="249" y="372"/>
      <point x="251" y="376"/>
      <point x="290" y="376" type="curve" name="hr02" smooth="yes"/>
      <point x="320" y="376"/>
      <point x="328" y="366"/>
      <point x="325" y="350" type="curve" smooth="yes"/>
      <point x="321" y="334"/>
      <point x="313" y="326"/>
      <point x="279" y="326" type="curve" smooth="yes"/>
      <point x="214" y="326" type="line" smooth="yes"/>
      <point x="202" y="326"/>
      <point x="190" y="315"/>
      <point x="188" y="304" type="curve" smooth="yes"/>
      <point x="188" y="304"/>
      <point x="170" y="219"/>
    </contour>
  </outline>
</glyph>
<glyph name="afii10084" format="1">
  <advance width="577"/>
  <unicode hex="0442"/>
  <outline>
    <contour>
      <point x="88" y="520" type="line" name="hr00"/>
      <point x="73" y="520"/>
      <point x="58" y="508"/>
      <point x="55" y="493" type="curve" smooth="yes"/>
      <point x="30" y="372" type="line" smooth="yes"/>
      <point x="26" y="357"/>
      <point x="36" y="345"/>
      <point x="51" y="345" type="curve" smooth="yes"/>
      <point x="184" y="345" type="line"/>
      <point x="116" y="27" type="line" smooth="yes"/>
      <point x="113" y="12"/>
      <point x="123" y="0"/>
      <point x="138" y="0" type="curve" smooth="yes"/>
      <point x="313" y="0" type="line" smooth="yes"/>
      <point x="328" y="0"/>
      <point x="342" y="12"/>
      <point x="345" y="27" type="curve" smooth="yes"/>
      <point x="413" y="345" type="line"/>
      <point x="546" y="345" type="line" smooth="yes"/>
      <point x="561" y="345"/>
      <point x="575" y="357"/>
      <point x="579" y="372" type="curve" smooth="yes"/>
      <point x="604" y="493" type="line" smooth="yes"/>
      <point x="607" y="508"/>
      <point x="598" y="520"/>
      <point x="583" y="520" type="curve" smooth="yes"/>
    </contour>
  </outline>
</glyph>
<glyph name="afii10086" format="1">
  <advance width="963"/>
  <unicode hex="0444"/>
  <outline>
    <contour>
      <point x="183" y="-10" type="curve" name="hr00" smooth="yes"/>
      <point x="239" y="-10"/>
      <point x="280" y="8"/>
      <point x="309" y="50" type="curve"/>
      <point x="264" y="-163" type="line" smooth="yes"/>
      <point x="261" y="-178"/>
      <point x="270" y="-190"/>
      <point x="285" y="-190" type="curve" smooth="yes"/>
      <point x="471" y="-190" type="line" smooth="yes"/>
      <point x="486" y="-190"/>
      <point x="501" y="-178"/>
      <point x="504" y="-163" type="curve" smooth="yes"/>
      <point x="549" y="50" type="line"/>
      <point x="570" y="7"/>
      <point x="603" y="-10"/>
      <point x="669" y="-10" type="curve" smooth="yes"/>
      <point x="785" y="-10"/>
      <point x="876" y="63"/>
      <point x="915" y="220" type="curve" smooth="yes"/>
      <point x="923" y="250"/>
      <point x="927" y="269"/>
      <point x="932" y="299" type="curve" smooth="yes"/>
      <point x="961" y="466"/>
      <point x="880" y="530"/>
      <point x="764" y="530" type="curve" smooth="yes"/>
      <point x="695" y="530"/>
      <point x="668" y="505"/>
      <point x="639" y="473" type="curve"/>
      <point x="684" y="683" type="line" smooth="yes"/>
      <point x="687" y="698"/>
      <point x="677" y="710"/>
      <point x="662" y="710" type="curve" smooth="yes"/>
      <point x="476" y="710" type="line" smooth="yes"/>
      <point x="461" y="710"/>
      <point x="447" y="698"/>
      <point x="444" y="683" type="curve" smooth="yes"/>
      <point x="399" y="473" type="line"/>
      <point x="377" y="512"/>
      <point x="357" y="530"/>
      <point x="278" y="530" type="curve" smooth="yes"/>
      <point x="162" y="530"/>
      <point x="75" y="466"/>
      <point x="32" y="299" type="curve" smooth="yes"/>
      <point x="25" y="269"/>
      <point x="21" y="250"/>
      <point x="15" y="220" type="curve" smooth="yes"/>
      <point x="-12" y="63"/>
      <point x="67" y="-10"/>
    </contour>
    <contour>
      <point x="262" y="227" type="curve" smooth="yes"/>
      <point x="264" y="247"/>
      <point x="270" y="273"/>
      <point x="276" y="293" type="curve" smooth="yes"/>
      <point x="287" y="329"/>
      <point x="301" y="351"/>
      <point x="333" y="351" type="curve" smooth="yes"/>
      <point x="365" y="351"/>
      <point x="366" y="329"/>
      <point x="361" y="293" type="curve" smooth="yes"/>
      <point x="356" y="263"/>
      <point x="353" y="249"/>
      <point x="345" y="219" type="curve" smooth="yes"/>
      <point x="336" y="187"/>
      <point x="323" y="169"/>
      <point x="294" y="169" type="curve" smooth="yes"/>
      <point x="262" y="169"/>
      <point x="258" y="191"/>
    </contour>
    <contour>
      <point x="672" y="227" type="curve" smooth="yes"/>
      <point x="660" y="191"/>
      <point x="646" y="169"/>
      <point x="614" y="169" type="curve" smooth="yes"/>
      <point x="585" y="169"/>
      <point x="580" y="187"/>
      <point x="585" y="219" type="curve" smooth="yes"/>
      <point x="589" y="249"/>
      <point x="592" y="263"/>
      <point x="601" y="293" type="curve" smooth="yes"/>
      <point x="610" y="329"/>
      <point x="621" y="351"/>
      <point x="653" y="351" type="curve" smooth="yes"/>
      <point x="685" y="351"/>
      <point x="689" y="329"/>
      <point x="686" y="293" type="curve" smooth="yes"/>
      <point x="684" y="273"/>
      <point x="678" y="247"/>
    </contour>
  </outline>
</glyph>
<glyph name="afii10089" format="1">
  <advance width="642"/>
  <unicode hex="0447"/>
  <outline>
    <contour>
      <point x="353" y="319" type="line" name="hr00"/>
      <point x="311" y="319" type="line" smooth="yes"/>
      <point x="277" y="319"/>
      <point x="269" y="328"/>
      <point x="277" y="364" type="curve" smooth="yes"/>
      <point x="304" y="493" type="line" smooth="yes"/>
      <point x="307" y="508"/>
      <point x="298" y="520"/>
      <point x="283" y="520" type="curve" smooth="yes"/>
      <point x="97" y="520" type="line" smooth="yes"/>
      <point x="82" y="520"/>
      <point x="67" y="508"/>
      <point x="64" y="493" type="curve" smooth="yes"/>
      <point x="35" y="354" type="line" smooth="yes"/>
      <point x="-1" y="184"/>
      <point x="129" y="120"/>
      <point x="279" y="120" type="curve" smooth="yes"/>
      <point x="311" y="120" type="line"/>
      <point x="291" y="27" type="line" smooth="yes"/>
      <point x="288" y="12"/>
      <point x="298" y="0"/>
      <point x="313" y="0" type="curve" smooth="yes"/>
      <point x="508" y="0" type="line" smooth="yes"/>
      <point x="523" y="0"/>
      <point x="537" y="12"/>
      <point x="540" y="27" type="curve" smooth="yes"/>
      <point x="639" y="493" type="line" smooth="yes"/>
      <point x="642" y="508"/>
      <point x="633" y="520"/>
      <point x="618" y="520" type="curve" smooth="yes"/>
      <point x="423" y="520" type="line" smooth="yes"/>
      <point x="408" y="520"/>
      <point x="393" y="508"/>
      <point x="390" y="493" type="curve" smooth="yes"/>
    </contour>
  </outline>
</glyph>
<glyph name="afii10094" format="1">
  <advance width="628"/>
  <unicode hex="044C"/>
  <outline>
    <contour>
      <point x="297" y="0" type="line" name="hr00" smooth="yes"/>
      <point x="493" y="0"/>
      <point x="570" y="98"/>
      <point x="592" y="204" type="curve" smooth="yes"/>
      <point x="619" y="330"/>
      <point x="525" y="433"/>
      <point x="369" y="433" type="curve" smooth="yes"/>
      <point x="314" y="433" type="line"/>
      <point x="326" y="493" type="line" smooth="yes"/>
      <point x="329" y="508"/>
      <point x="320" y="520"/>
      <point x="305" y="520" type="curve" smooth="yes"/>
      <point x="119" y="520" type="line" smooth="yes"/>
      <point x="104" y="520"/>
      <point x="89" y="508"/>
      <point x="86" y="493" type="curve" smooth="yes"/>
      <point x="-12" y="27" type="line" smooth="yes"/>
      <point x="-15" y="12"/>
      <point x="-5" y="0"/>
      <point x="10" y="0" type="curve" smooth="yes"/>
    </contour>
    <contour>
      <point x="271" y="258" type="line"/>
      <point x="341" y="258" type="line" smooth="yes"/>
      <point x="372" y="258"/>
      <point x="382" y="235"/>
      <point x="378" y="216" type="curve" smooth="yes"/>
      <point x="374" y="197"/>
      <point x="360" y="177"/>
      <point x="324" y="177" type="curve" smooth="yes"/>
      <point x="254" y="177" type="line"/>
    </contour>
  </outline>
</glyph>
<glyph name="afii10096" format="1">
  <advance width="967"/>
  <unicode hex="044E"/>
  <outline>
    <contour>
      <point x="686" y="530" type="curve" smooth="yes"/>
      <point x="522" y="530"/>
      <point x="422" y="469"/>
      <point x="373" y="350" type="curve"/>
      <point x="290" y="350" type="line"/>
      <point x="320" y="493" type="line"/>
      <point x="323" y="508"/>
      <point x="314" y="520"/>
      <point x="299" y="520" type="curve" name="hr01"/>
      <point x="120" y="520" type="line"/>
      <point x="105" y="520"/>
      <point x="90" y="508"/>
      <point x="87" y="493" type="curve"/>
      <point x="-12" y="27" type="line"/>
      <point x="-15" y="12"/>
      <point x="-5" y="0"/>
      <point x="10" y="0" type="curve"/>
      <point x="189" y="0" type="line"/>
      <point x="204" y="0"/>
      <point x="218" y="12"/>
      <point x="221" y="27" type="curve"/>
      <point x="253" y="175" type="line"/>
      <point x="336" y="175" type="line"/>
      <point x="337" y="53"/>
      <point x="433" y="-10"/>
      <point x="591" y="-10" type="curve" name="hr02" smooth="yes"/>
      <point x="785" y="-10"/>
      <point x="878" y="66"/>
      <point x="919" y="213" type="curve" smooth="yes"/>
      <point x="927" y="243"/>
      <point x="934" y="277"/>
      <point x="939" y="307" type="curve"/>
      <point x="960" y="454"/>
      <point x="849" y="530"/>
    </contour>
    <contour>
      <point x="693" y="302" type="curve" smooth="yes"/>
      <point x="690" y="282"/>
      <point x="680" y="238"/>
      <point x="675" y="218" type="curve" smooth="yes"/>
      <point x="662" y="171"/>
      <point x="653" y="150"/>
      <point x="615" y="150" type="curve" smooth="yes"/>
      <point x="577" y="150"/>
      <point x="578" y="171"/>
      <point x="585" y="218" type="curve" smooth="yes"/>
      <point x="588" y="238"/>
      <point x="597" y="282"/>
      <point x="603" y="302" type="curve" smooth="yes"/>
      <point x="615" y="346"/>
      <point x="624" y="370"/>
      <point x="662" y="370" type="curve" smooth="yes"/>
      <point x="700" y="370"/>
      <point x="700" y="346"/>
    </contour>
  </outline>
</glyph>
<glyph name="afii10108" format="1">
  <advance width="717"/>
  <unicode hex="045B"/>
  <outline>
    <contour>
      <point x="313" y="276" type="line" smooth="yes"/>
      <point x="321" y="312"/>
      <point x="349" y="331"/>
      <point x="381" y="331" type="curve" smooth="yes"/>
      <point x="413" y="331"/>
      <point x="432" y="312"/>
      <point x="424" y="276" type="curve" smooth="yes"/>
      <point x="371" y="28" type="line" smooth="yes"/>
      <point x="368" y="13"/>
      <point x="378" y="1"/>
      <point x="393" y="1" type="curve" smooth="yes"/>
      <point x="589" y="1" type="line" smooth="yes"/>
      <point x="604" y="1"/>
      <point x="618" y="13"/>
      <point x="621" y="28" type="curve" smooth="yes"/>
      <point x="676" y="283" type="line"/>
      <point x="709" y="441"/>
      <point x="611" y="510"/>
      <point x="510" y="510" type="curve" smooth="yes"/>
      <point x="448" y="510"/>
      <point x="393" y="486"/>
      <point x="350" y="448" type="curve"/>
      <point x="365" y="519" type="line"/>
      <point x="436" y="519" type="line" smooth="yes"/>
      <point x="449" y="519"/>
      <point x="461" y="529"/>
      <point x="464" y="542" type="curve" smooth="yes"/>
      <point x="483" y="633" type="line" smooth="yes"/>
      <point x="486" y="646"/>
      <point x="478" y="656"/>
      <point x="465" y="656" type="curve" smooth="yes"/>
      <point x="394" y="656" type="line"/>
      <point x="400" y="683" type="line" smooth="yes"/>
      <point x="403" y="698"/>
      <point x="393" y="710"/>
      <point x="378" y="710" type="curve" name="hr01" smooth="yes"/>
      <point x="193" y="710" type="line" smooth="yes"/>
      <point x="178" y="710"/>
      <point x="164" y="698"/>
      <point x="161" y="683" type="curve" smooth="yes"/>
      <point x="155" y="656" type="line" name="hr02"/>
      <point x="88" y="656" type="line" smooth="yes"/>
      <point x="75" y="656"/>
      <point x="63" y="646"/>
      <point x="60" y="633" type="curve" smooth="yes"/>
      <point x="41" y="542" type="line" smooth="yes"/>
      <point x="38" y="529"/>
      <point x="46" y="519"/>
      <point x="59" y="519" type="curve" smooth="yes"/>
      <point x="126" y="519" type="line"/>
      <point x="21" y="27" type="line" smooth="yes"/>
      <point x="18" y="12"/>
      <point x="28" y="0"/>
      <point x="43" y="0" type="curve" smooth="yes"/>
      <point x="228" y="0" type="line" smooth="yes"/>
      <point x="243" y="0"/>
      <point x="257" y="12"/>
      <point x="260" y="27" type="curve" smooth="yes"/>
    </contour>
  </outline>
</glyph>
<glyph name="afii10050" format="1">
  <advance width="626"/>
  <unicode hex="0490"/>
  <outline>
    <contour>
      <point x="628" y="495" type="line" name="hr00"/>
      <point x="643" y="495"/>
      <point x="657" y="507"/>
      <point x="660" y="522" type="curve" smooth="yes"/>
      <point x="716" y="783" type="line" smooth="yes"/>
      <point x="719" y="798"/>
      <point x="710" y="810"/>
      <point x="695" y="810" type="curve" smooth="yes"/>
      <point x="534" y="810" type="line" smooth="yes"/>
      <point x="519" y="810"/>
      <point x="504" y="798"/>
      <point x="501" y="783" type="curve" smooth="yes"/>
      <point x="483" y="700" type="line"/>
      <point x="167" y="700" type="line" smooth="yes"/>
      <point x="152" y="700"/>
      <point x="138" y="688"/>
      <point x="135" y="673" type="curve" smooth="yes"/>
      <point x="-3" y="27" type="line" smooth="yes"/>
      <point x="-6" y="12"/>
      <point x="4" y="0"/>
      <point x="19" y="0" type="curve" smooth="yes"/>
      <point x="219" y="0" type="line" smooth="yes"/>
      <point x="234" y="0"/>
      <point x="248" y="12"/>
      <point x="251" y="27" type="curve" smooth="yes"/>
      <point x="351" y="495" type="line"/>
    </contour>
  </outline>
</glyph>
<glyph name="hatafqamatshebrew" format="1">
  <advance width="100"/>
  <unicode hex="05B3"/>
  <outline>
    <component base="shevahebrew" xOffset="114"/>
    <component base="qamatshebrew" xOffset="-101"/>
    <contour>
      <point x="-50" y="0" type="move" name="_bottom"/>
    </contour>
  </outline>
</glyph>
<glyph name="maqafhebrew" format="1">
  <advance width="419"/>
  <unicode hex="05BE"/>
  <outline>
    <contour>
      <point x="372" y="395" type="line" smooth="yes"/>
      <point x="385" y="395"/>
      <point x="396" y="404"/>
      <point x="399" y="417" type="curve" smooth="yes"/>
      <point x="427" y="549" type="line" smooth="yes"/>
      <point x="430" y="562"/>
      <point x="423" y="571"/>
      <point x="410" y="571" type="curve" smooth="yes"/>
      <point x="155" y="571" type="line" smooth="yes"/>
      <point x="142" y="571"/>
      <point x="131" y="562"/>
      <point x="128" y="549" type="curve" smooth="yes"/>
      <point x="100" y="417" type="line" smooth="yes"/>
      <point x="97" y="404"/>
      <point x="104" y="395"/>
      <point x="117" y="395" type="curve" smooth="yes"/>
    </contour>
  </outline>
</glyph>
<glyph name="shindothebrew" format="1">
  <advance width="100"/>
  <unicode hex="05C1"/>
  <outline>
    <contour>
      <point x="-12" y="493" type="line" smooth="yes"/>
      <point x="1" y="493"/>
      <point x="12" y="502"/>
      <point x="15" y="515" type="curve" smooth="yes"/>
      <point x="28" y="578" type="line" smooth="yes"/>
      <point x="31" y="591"/>
      <point x="24" y="600"/>
      <point x="11" y="600" type="curve" smooth="yes"/>
      <point x="-52" y="600" type="line" smooth="yes"/>
      <point x="-65" y="600"/>
      <point x="-76" y="591"/>
      <point x="-79" y="578" type="curve" smooth="yes"/>
      <point x="-92" y="515" type="line" smooth="yes"/>
      <point x="-95" y="502"/>
      <point x="-88" y="493"/>
      <point x="-75" y="493" type="curve" smooth="yes"/>
    </contour>
    <contour>
      <point x="60" y="415" type="move" name="_topright"/>
    </contour>
  </outline>
</glyph>
<glyph name="qamatsqatanhebrew" format="1">
  <advance width="100"/>
  <unicode hex="05C7"/>
  <outline>
    <contour>
      <point x="19" y="-182" type="line" smooth="yes"/>
      <point x="32" y="-182"/>
      <point x="42" y="-173"/>
      <point x="45" y="-160" type="curve" smooth="yes"/>
      <point x="59" y="-97" type="line" smooth="yes"/>
      <point x="61" y="-84"/>
      <point x="54" y="-75"/>
      <point x="41" y="-75" type="curve" smooth="yes"/>
      <point x="-167" y="-75" type="line" smooth="yes"/>
      <point x="-180" y="-75"/>
      <point x="-191" y="-84"/>
      <point x="-193" y="-97" type="curve" smooth="yes"/>
      <point x="-207" y="-160" type="line" smooth="yes"/>
      <point x="-210" y="-173"/>
      <point x="-202" y="-182"/>
      <point x="-189" y="-182" type="curve" smooth="yes"/>
    </contour>
    <contour>
      <point x="-80" y="-261" type="line" smooth="yes"/>
      <point x="-67" y="-261"/>
      <point x="-56" y="-252"/>
      <point x="-54" y="-239" type="curve" smooth="yes"/>
      <point x="-35" y="-150" type="line" smooth="yes"/>
      <point x="-30" y="-127"/>
      <point x="-39" y="-128"/>
      <point x="-52" y="-128" type="curve" smooth="yes"/>
      <point x="-99" y="-128" type="line" smooth="yes"/>
      <point x="-112" y="-128"/>
      <point x="-121" y="-127"/>
      <point x="-126" y="-150" type="curve" smooth="yes"/>
      <point x="-145" y="-239" type="line" smooth="yes"/>
      <point x="-147" y="-252"/>
      <point x="-140" y="-261"/>
      <point x="-127" y="-261" type="curve" smooth="yes"/>
    </contour>
    <contour>
      <point x="-47" y="0" type="move" name="_bottom"/>
    </contour>
  </outline>
</glyph>
<glyph name="bethebrew" format="1">
  <advance width="599"/>
  <unicode hex="05D1"/>
  <outline>
    <contour>
      <point x="500" y="0" type="line" smooth="yes"/>
      <point x="515" y="0"/>
      <point x="530" y="12"/>
      <point x="533" y="27" type="curve" smooth="yes"/>
      <point x="559" y="148" type="line" smooth="yes"/>
      <point x="562" y="163"/>
      <point x="552" y="175"/>
      <point x="537" y="175" type="curve" smooth="yes"/>
      <point x="504" y="175" type="line"/>
      <point x="535" y="318" type="line" smooth="yes"/>
      <point x="576" y="512"/>
      <point x="472" y="571"/>
      <point x="287" y="571" type="curve" smooth="yes"/>
      <point x="141" y="571" type="line" smooth="yes"/>
      <point x="126" y="571"/>
      <point x="111" y="559"/>
      <point x="108" y="544" type="curve" smooth="yes"/>
      <point x="82" y="422" type="line" smooth="yes"/>
      <point x="79" y="407"/>
      <point x="88" y="395"/>
      <point x="103" y="395" type="curve" smooth="yes"/>
      <point x="244" y="395" type="line" smooth="yes"/>
      <point x="293" y="395"/>
      <point x="313" y="370"/>
      <point x="302" y="320" type="curve" smooth="yes"/>
      <point x="271" y="175" type="line"/>
      <point x="46" y="175" type="line" smooth="yes"/>
      <point x="31" y="175"/>
      <point x="17" y="163"/>
      <point x="14" y="148" type="curve" smooth="yes"/>
      <point x="-12" y="27" type="line" smooth="yes"/>
      <point x="-15" y="12"/>
      <point x="-6" y="0"/>
      <point x="9" y="0" type="curve" smooth="yes"/>
    </contour>
    <contour>
      <point x="173" y="260" type="move" name="center"/>
    </contour>
    <contour>
      <point x="362" y="520" type="move" name="top"/>
    </contour>
    <contour>
      <point x="-29" y="0" type="move" name="bottomleft"/>
    </contour>
    <contour>
      <point x="82" y="520" type="move" name="topleft"/>
    </contour>
    <contour>
      <point x="251" y="0" type="move" name="bottom"/>
    </contour>
  </outline>
</glyph>
<glyph name="hehebrew" format="1">
  <advance width="668"/>
  <unicode hex="05D4"/>
  <outline>
    <contour>
      <point x="551" y="0" type="line" smooth="yes"/>
      <point x="566" y="0"/>
      <point x="581" y="12"/>
      <point x="584" y="27" type="curve" smooth="yes"/>
      <point x="646" y="317" type="line" smooth="yes"/>
      <point x="685" y="501"/>
      <point x="593" y="571"/>
      <point x="408" y="571" type="curve" smooth="yes"/>
      <point x="147" y="571" type="line" smooth="yes"/>
      <point x="132" y="571"/>
      <point x="117" y="559"/>
      <point x="114" y="544" type="curve" smooth="yes"/>
      <point x="88" y="423" type="line" smooth="yes"/>
      <point x="85" y="408"/>
      <point x="94" y="396"/>
      <point x="109" y="396" type="curve" smooth="yes"/>
      <point x="365" y="396" type="line" smooth="yes"/>
      <point x="414" y="396"/>
      <point x="434" y="371"/>
      <point x="423" y="321" type="curve" smooth="yes"/>
      <point x="361" y="26" type="line" smooth="yes"/>
      <point x="358" y="11"/>
      <point x="367" y="0"/>
      <point x="382" y="0" type="curve" smooth="yes"/>
    </contour>
    <contour>
      <point x="194" y="0" type="line" smooth="yes"/>
      <point x="209" y="0"/>
      <point x="224" y="12"/>
      <point x="227" y="27" type="curve"/>
      <point x="283" y="289" type="line" smooth="yes"/>
      <point x="286" y="304"/>
      <point x="276" y="316"/>
      <point x="261" y="316" type="curve" smooth="yes"/>
      <point x="92" y="316" type="line" smooth="yes"/>
      <point x="77" y="316"/>
      <point x="63" y="304"/>
      <point x="60" y="289" type="curve" smooth="yes"/>
      <point x="4" y="27" type="line" smooth="yes"/>
      <point x="1" y="12"/>
      <point x="10" y="0"/>
      <point x="25" y="0" type="curve" smooth="yes"/>
    </contour>
    <contour>
      <point x="340" y="260" type="move" name="center"/>
    </contour>
    <contour>
      <point x="396" y="520" type="move" name="top"/>
    </contour>
    <contour>
      <point x="-29" y="0" type="move" name="bottomleft"/>
    </contour>
    <contour>
      <point x="82" y="520" type="move" name="topleft"/>
    </contour>
    <contour>
      <point x="285" y="0" type="move" name="bottom"/>
    </contour>
  </outline>
</glyph>
<glyph name="hethebrew" format="1">
  <advance width="673"/>
  <unicode hex="05D7"/>
  <outline>
    <contour>
      <point x="194" y="0" type="line" smooth="yes"/>
      <point x="209" y="0"/>
      <point x="224" y="12"/>
      <point x="227" y="27" type="curve" smooth="yes"/>
      <point x="305" y="396" type="line"/>
      <point x="370" y="396" type="line" smooth="yes"/>
      <point x="419" y="396"/>
      <point x="439" y="371"/>
      <point x="428" y="321" type="curve" smooth="yes"/>
      <point x="366" y="26" type="line" smooth="yes"/>
      <point x="363" y="11"/>
      <point x="372" y="0"/>
      <point x="387" y="0" type="curve" smooth="yes"/>
      <point x="556" y="0" type="line" smooth="yes"/>
      <point x="571" y="0"/>
      <point x="586" y="12"/>
      <point x="589" y="27" type="curve" smooth="yes"/>
      <point x="651" y="317" type="line" smooth="yes"/>
      <point x="692" y="513"/>
      <point x="603" y="571"/>
      <point x="413" y="571" type="curve" smooth="yes"/>
      <point x="147" y="571" type="line" smooth="yes"/>
      <point x="132" y="571"/>
      <point x="117" y="559"/>
      <point x="114" y="544" type="curve" smooth="yes"/>
      <point x="4" y="27" type="line" smooth="yes"/>
      <point x="1" y="12"/>
      <point x="10" y="0"/>
      <point x="25" y="0" type="curve" smooth="yes"/>
    </contour>
    <contour>
      <point x="343" y="260" type="move" name="center"/>
    </contour>
    <contour>
      <point x="399" y="520" type="move" name="top"/>
    </contour>
    <contour>
      <point x="-29" y="0" type="move" name="bottomleft"/>
    </contour>
    <contour>
      <point x="82" y="520" type="move" name="topleft"/>
    </contour>
    <contour>
      <point x="288" y="0" type="move" name="bottom"/>
    </contour>
  </outline>
</glyph>
<glyph name="lamedhebrew" format="1">
  <advance width="545"/>
  <unicode hex="05DC"/>
  <outline>
    <contour>
      <point x="180" y="-5" type="line" smooth="yes"/>
      <point x="336" y="32"/>
      <point x="500" y="149"/>
      <point x="538" y="326" type="curve" smooth="yes"/>
      <point x="568" y="471"/>
      <point x="524" y="571"/>
      <point x="348" y="571" type="curve" smooth="yes"/>
      <point x="281" y="571" type="line"/>
      <point x="268" y="571"/>
      <point x="251" y="559"/>
      <point x="248" y="546" type="curve"/>
      <point x="220" y="413" type="line"/>
      <point x="217" y="398"/>
      <point x="227" y="386"/>
      <point x="241" y="386" type="curve"/>
      <point x="258" y="386" type="line"/>
      <point x="308" y="386"/>
      <point x="315" y="365"/>
      <point x="304" y="315" type="curve" smooth="yes"/>
      <point x="290" y="249"/>
      <point x="250" y="218"/>
      <point x="210" y="203" type="curve" smooth="yes"/>
      <point x="181" y="192" type="line" smooth="yes"/>
      <point x="166" y="186"/>
      <point x="150" y="171"/>
      <point x="146" y="156" type="curve" smooth="yes"/>
      <point x="117" y="17" type="line" smooth="yes"/>
      <point x="114" y="2"/>
      <point x="123" y="-18"/>
      <point x="138" y="-15" type="curve" smooth="yes"/>
    </contour>
    <contour>
      <point x="327" y="571" type="line"/>
      <point x="296" y="571" type="line"/>
      <point x="319" y="683" type="line" smooth="yes"/>
      <point x="323" y="698"/>
      <point x="313" y="710"/>
      <point x="298" y="710" type="curve" smooth="yes"/>
      <point x="145" y="710" type="line" smooth="yes"/>
      <point x="130" y="710"/>
      <point x="116" y="698"/>
      <point x="112" y="683" type="curve" smooth="yes"/>
      <point x="55" y="413" type="line" smooth="yes"/>
      <point x="52" y="398"/>
      <point x="61" y="386"/>
      <point x="76" y="386" type="curve" smooth="yes"/>
      <point x="287" y="386" type="line"/>
    </contour>
    <contour>
      <point x="158" y="260" type="move" name="center"/>
    </contour>
    <contour>
      <point x="341" y="520" type="move" name="top"/>
    </contour>
    <contour>
      <point x="-29" y="0" type="move" name="bottomleft"/>
    </contour>
    <contour>
      <point x="26" y="520" type="move" name="topleft"/>
    </contour>
    <contour>
      <point x="190" y="0" type="move" name="bottom"/>
    </contour>
  </outline>
</glyph>
<glyph name="finalpehebrew" format="1">
  <advance width="590"/>
  <unicode hex="05E3"/>
  <outline>
    <contour>
      <point x="291" y="388" type="line" smooth="yes"/>
      <point x="339" y="389"/>
      <point x="360" y="361"/>
      <point x="352" y="311" type="curve"/>
      <point x="266" y="-97" type="line"/>
      <point x="262" y="-112"/>
      <point x="272" y="-124"/>
      <point x="287" y="-124" type="curve" smooth="yes"/>
      <point x="447" y="-124" type="line" smooth="yes"/>
      <point x="462" y="-124"/>
      <point x="476" y="-112"/>
      <point x="480" y="-97" type="curve"/>
      <point x="565" y="308" type="line"/>
      <point x="589" y="462"/>
      <point x="534" y="571"/>
      <point x="352" y="571" type="curve" smooth="yes"/>
      <point x="129" y="571" type="line" smooth="yes"/>
      <point x="114" y="571"/>
      <point x="99" y="560"/>
      <point x="96" y="544" type="curve" smooth="yes"/>
      <point x="65" y="398" type="line"/>
      <point x="40" y="280"/>
      <point x="89" y="207"/>
      <point x="156" y="200" type="curve" smooth="yes"/>
      <point x="213" y="194" type="line" smooth="yes"/>
      <point x="229" y="192"/>
      <point x="253" y="204"/>
      <point x="256" y="222" type="curve" smooth="yes"/>
      <point x="272" y="302" type="line" smooth="yes"/>
      <point x="275" y="314"/>
      <point x="272" y="327"/>
      <point x="262" y="332" type="curve" smooth="yes"/>
      <point x="243" y="341" type="line" smooth="yes"/>
      <point x="232" y="346"/>
      <point x="234" y="364"/>
      <point x="237" y="380" type="curve"/>
      <point x="238" y="387" type="line"/>
    </contour>
    <contour>
      <point x="293" y="242" type="move" name="center"/>
    </contour>
    <contour>
      <point x="346" y="520" type="move" name="top"/>
    </contour>
    <contour>
      <point x="-29" y="0" type="move" name="bottomleft"/>
    </contour>
    <contour>
      <point x="82" y="520" type="move" name="topleft"/>
    </contour>
    <contour>
      <point x="235" y="0" type="move" name="bottom"/>
    </contour>
  </outline>
</glyph>
<glyph name="tsadihebrew" format="1">
  <advance width="629"/>
  <unicode hex="05E6"/>
  <outline>
    <contour>
      <point x="475" y="0" type="line" smooth="yes"/>
      <point x="490" y="0"/>
      <point x="505" y="12"/>
      <point x="508" y="27" type="curve" smooth="yes"/>
      <point x="532" y="141" type="line" smooth="yes"/>
      <point x="536" y="159"/>
      <point x="529" y="168"/>
      <point x="525" y="176" type="curve" smooth="yes"/>
      <point x="321" y="552" type="line" smooth="yes"/>
      <point x="318" y="557"/>
      <point x="312" y="571"/>
      <point x="289" y="571" type="curve" smooth="yes"/>
      <point x="112" y="571" type="line" smooth="yes"/>
      <point x="100" y="571"/>
      <point x="88" y="563"/>
      <point x="85" y="551" type="curve" smooth="yes"/>
      <point x="84" y="545"/>
      <point x="86" y="540"/>
      <point x="87" y="537" type="curve" smooth="yes"/>
      <point x="286" y="180" type="line"/>
      <point x="77" y="180" type="line" smooth="yes"/>
      <point x="62" y="180"/>
      <point x="48" y="168"/>
      <point x="45" y="153" type="curve" smooth="yes"/>
      <point x="18" y="27" type="line" smooth="yes"/>
      <point x="15" y="12"/>
      <point x="24" y="0"/>
      <point x="39" y="0" type="curve" smooth="yes"/>
    </contour>
    <contour>
      <point x="561" y="299"/>
      <point x="621" y="381"/>
      <point x="639" y="463" type="curve" smooth="yes"/>
      <point x="655" y="542" type="line" smooth="yes"/>
      <point x="659" y="557"/>
      <point x="650" y="571"/>
      <point x="635" y="571" type="curve" smooth="yes"/>
      <point x="486" y="571" type="line" smooth="yes"/>
      <point x="471" y="571"/>
      <point x="456" y="559"/>
      <point x="452" y="542" type="curve" smooth="yes"/>
      <point x="445" y="506" type="line" smooth="yes"/>
      <point x="436" y="463"/>
      <point x="421" y="422"/>
      <point x="386" y="390" type="curve"/>
      <point x="466" y="243" type="line"/>
    </contour>
    <contour>
      <point x="124" y="235" type="move" name="center"/>
    </contour>
    <contour>
      <point x="367" y="520" type="move" name="top"/>
    </contour>
    <contour>
      <point x="-29" y="0" type="move" name="bottomleft"/>
    </contour>
    <contour>
      <point x="82" y="520" type="move" name="topleft"/>
    </contour>
    <contour>
      <point x="256" y="0" type="move" name="bottom"/>
    </contour>
  </outline>
</glyph>
<glyph name="gershayimhebrew" format="1">
  <advance width="567"/>
  <unicode hex="05F4"/>
  <outline>
    <contour>
      <point x="438" y="298" type="line" smooth="yes"/>
      <point x="464" y="298"/>
      <point x="480" y="317"/>
      <point x="487" y="330" type="curve" smooth="yes"/>
      <point x="634" y="572" type="line" smooth="yes"/>
      <point x="635" y="575"/>
      <point x="636" y="577"/>
      <point x="636" y="579" type="curve" smooth="yes"/>
      <point x="639" y="591"/>
      <point x="631" y="601"/>
      <point x="619" y="601" type="curve" smooth="yes"/>
      <point x="459" y="601" type="line" smooth="yes"/>
      <point x="432" y="601"/>
      <point x="414" y="580"/>
      <point x="408" y="562" type="curve"/>
      <point x="319" y="320" type="line"/>
      <point x="317" y="308"/>
      <point x="325" y="298"/>
      <point x="337" y="298" type="curve" smooth="yes"/>
    </contour>
    <contour>
      <point x="166" y="298" type="line" smooth="yes"/>
      <point x="192" y="298"/>
      <point x="208" y="317"/>
      <point x="215" y="330" type="curve" smooth="yes"/>
      <point x="362" y="572" type="line" smooth="yes"/>
      <point x="363" y="575"/>
      <point x="364" y="577"/>
      <point x="364" y="579" type="curve" smooth="yes"/>
      <point x="367" y="591"/>
      <point x="359" y="601"/>
      <point x="347" y="601" type="curve" smooth="yes"/>
      <point x="187" y="601" type="line" smooth="yes"/>
      <point x="160" y="601"/>
      <point x="142" y="580"/>
      <point x="136" y="562" type="curve"/>
      <point x="47" y="320" type="line"/>
      <point x="45" y="308"/>
      <point x="53" y="298"/>
      <point x="65" y="298" type="curve" smooth="yes"/>
    </contour>
  </outline>
</glyph>
<glyph name="quoteleft" format="1">
  <advance width="311"/>
  <unicode hex="2018"/>
  <outline>
    <contour>
      <point x="370" y="686" type="line" name="hr00" smooth="yes"/>
      <point x="374" y="698"/>
      <point x="364" y="710"/>
      <point x="353" y="710" type="curve" smooth="yes"/>
      <point x="242" y="710" type="line" smooth="yes"/>
      <point x="216" y="710"/>
      <point x="201" y="691"/>
      <point x="193" y="678" type="curve" smooth="yes"/>
      <point x="46" y="436" type="line" smooth="yes"/>
      <point x="39" y="424"/>
      <point x="44" y="407"/>
      <point x="61" y="407" type="curve" smooth="yes"/>
      <point x="231" y="407" type="line" smooth="yes"/>
      <point x="258" y="407"/>
      <point x="275" y="428"/>
      <point x="282" y="446" type="curve" smooth="yes"/>
    </contour>
  </outline>
</glyph>
<glyph name="bullet" format="1">
  <advance width="387"/>
  <unicode hex="2022"/>
  <outline>
    <contour>
      <point x="65" y="350" type="curve" name="hr00" smooth="yes"/>
      <point x="49" y="273"/>
      <point x="98" y="210"/>
      <point x="175" y="210" type="curve" smooth="yes"/>
      <point x="252" y="210"/>
      <point x="329" y="273"/>
      <point x="345" y="350" type="curve" smooth="yes"/>
      <point x="361" y="427"/>
      <point x="312" y="490"/>
      <point x="235" y="490" type="curve" smooth="yes"/>
      <point x="158" y="490"/>
      <point x="81" y="427"/>
    </contour>
  </outline>
</glyph>
<glyph name="ellipsis" format="1">
  <advance width="844"/>
  <unicode hex="2026"/>
  <outline>
    <contour>
      <point x="50" y="208" type="line" name="hr00"/>
      <point x="35" y="208"/>
      <point x="20" y="196"/>
      <point x="17" y="181" type="curve" smooth="yes"/>
      <point x="-16" y="27" type="line" smooth="yes"/>
      <point x="-19" y="12"/>
      <point x="-9" y="0"/>
      <point x="6" y="0" type="curve" smooth="yes"/>
      <point x="160" y="0" type="line" smooth="yes"/>
      <point x="175" y="0"/>
      <point x="189" y="12"/>
      <point x="192" y="27" type="curve" smooth="yes"/>
      <point x="225" y="181" type="line" smooth="yes"/>
      <point x="228" y="196"/>
      <point x="219" y="208"/>
      <point x="204" y="208" type="curve" smooth="yes"/>
    </contour>
    <contour>
      <point x="328" y="208" type="line"/>
      <point x="313" y="208"/>
      <point x="298" y="196"/>
      <point x="295" y="181" type="curve" smooth="yes"/>
      <point x="262" y="27" type="line" smooth="yes"/>
      <point x="259" y="12"/>
      <point x="269" y="0"/>
      <point x="284" y="0" type="curve" smooth="yes"/>
      <point x="438" y="0" type="line" smooth="yes"/>
      <point x="453" y="0"/>
      <point x="467" y="12"/>
      <point x="470" y="27" type="curve" smooth="yes"/>
      <point x="503" y="181" type="line" smooth="yes"/>
      <point x="506" y="196"/>
      <point x="497" y="208"/>
      <point x="482" y="208" type="curve" smooth="yes"/>
    </contour>
    <contour>
      <point x="606" y="208" type="line"/>
      <point x="591" y="208"/>
      <point x="576" y="196"/>
      <point x="573" y="181" type="curve" smooth="yes"/>
      <point x="540" y="27" type="line" smooth="yes"/>
      <point x="537" y="12"/>
      <point x="547" y="0"/>
      <point x="562" y="0" type="curve" smooth="yes"/>
      <point x="716" y="0" type="line" smooth="yes"/>
      <point x="731" y="0"/>
      <point x="745" y="12"/>
      <point x="748" y="27" type="curve" smooth="yes"/>
      <point x="781" y="181" type="line" smooth="yes"/>
      <point x="784" y="196"/>
      <point x="775" y="208"/>
      <point x="760" y="208" type="curve" smooth="yes"/>
    </contour>
  </outline>
</glyph>
<glyph name="sixinferior" format="1">
  <advance width="361"/>
  <unicode hex="2086"/>
  <outline>
    <contour>
      <point x="243" y="140" type="line" name="hr00" smooth="yes"/>
      <point x="251" y="148"/>
      <point x="255" y="154"/>
      <point x="257" y="160" type="curve" smooth="yes"/>
      <point x="259" y="171"/>
      <point x="252" y="180"/>
      <point x="241" y="180" type="curve" smooth="yes"/>
      <point x="156" y="180" type="line" smooth="yes"/>
      <point x="145" y="180"/>
      <point x="132" y="173"/>
      <point x="124" y="165" type="curve" smooth="yes"/>
      <point x="18" y="58" type="line" smooth="yes"/>
      <point x="1" y="41"/>
      <point x="-42" y="0"/>
      <point x="-51" y="-43" type="curve" smooth="yes"/>
      <point x="-68" y="-125"/>
      <point x="11" y="-175"/>
      <point x="95" y="-175" type="curve" smooth="yes"/>
      <point x="199" y="-175"/>
      <point x="257" y="-128"/>
      <point x="273" y="-52" type="curve" smooth="yes"/>
      <point x="289" y="23"/>
      <point x="223" y="62"/>
      <point x="178" y="73" type="curve"/>
    </contour>
    <contour>
      <point x="144" y="-48" type="curve" smooth="yes"/>
      <point x="140" y="-67"/>
      <point x="123" y="-78"/>
      <point x="106" y="-78" type="curve" smooth="yes"/>
      <point x="89" y="-78"/>
      <point x="77" y="-67"/>
      <point x="81" y="-48" type="curve" smooth="yes"/>
      <point x="85" y="-29"/>
      <point x="101" y="-19"/>
      <point x="118" y="-19" type="curve" smooth="yes"/>
      <point x="136" y="-19"/>
      <point x="148" y="-29"/>
    </contour>
  </outline>
</glyph>
<glyph name="summation" format="1">
  <advance width="678"/>
  <unicode hex="2211"/>
  <outline>
    <contour>
      <point x="107" y="469" type="line" name="hr00"/>
      <point x="95" y="481"/>
      <point x="82" y="492"/>
      <point x="88" y="519" type="curve" smooth="yes"/>
      <point x="121" y="673" type="line" smooth="yes"/>
      <point x="124" y="688"/>
      <point x="138" y="700"/>
      <point x="153" y="700" type="curve" smooth="yes"/>
      <point x="687" y="700" type="line" smooth="yes"/>
      <point x="702" y="700"/>
      <point x="712" y="688"/>
      <point x="709" y="673" type="curve" smooth="yes"/>
      <point x="671" y="495" type="line" smooth="yes"/>
      <point x="668" y="480"/>
      <point x="653" y="468"/>
      <point x="638" y="468" type="curve" smooth="yes"/>
      <point x="411" y="468" type="line"/>
      <point x="598" y="308" type="line"/>
      <point x="612" y="295"/>
      <point x="626" y="283"/>
      <point x="622" y="264" type="curve" smooth="yes"/>
      <point x="616" y="236" type="line" smooth="yes"/>
      <point x="612" y="217"/>
      <point x="593" y="205"/>
      <point x="573" y="192" type="curve"/>
      <point x="346" y="32" type="line"/>
      <point x="545" y="32" type="line" smooth="yes"/>
      <point x="560" y="32"/>
      <point x="570" y="20"/>
      <point x="567" y="5" type="curve" smooth="yes"/>
      <point x="529" y="-173" type="line" smooth="yes"/>
      <point x="526" y="-188"/>
      <point x="511" y="-200"/>
      <point x="496" y="-200" type="curve" smooth="yes"/>
      <point x="-38" y="-200" type="line" smooth="yes"/>
      <point x="-53" y="-200"/>
      <point x="-62" y="-188"/>
      <point x="-59" y="-173" type="curve" smooth="yes"/>
      <point x="-27" y="-19" type="line" smooth="yes"/>
      <point x="-21" y="8"/>
      <point x="-3" y="19"/>
      <point x="14" y="31" type="curve" smooth="yes"/>
      <point x="334" y="264" type="line"/>
    </contour>
  </outline>
</glyph>
<glyph name="lozenge" format="1">
  <advance width="623"/>
  <unicode hex="25CA"/>
  <outline>
    <contour>
      <point x="356" y="710" type="line" name="hr00" smooth="yes"/>
      <point x="329" y="710"/>
      <point x="310" y="690"/>
      <point x="299" y="677" type="curve" smooth="yes"/>
      <point x="48" y="377" type="line" smooth="yes"/>
      <point x="41" y="369"/>
      <point x="36" y="362"/>
      <point x="35" y="355" type="curve" smooth="yes"/>
      <point x="33" y="348"/>
      <point x="35" y="341"/>
      <point x="38" y="333" type="curve" smooth="yes"/>
      <point x="163" y="33" type="line" smooth="yes"/>
      <point x="168" y="20"/>
      <point x="179" y="0"/>
      <point x="206" y="0" type="curve" smooth="yes"/>
      <point x="292" y="0" type="line" smooth="yes"/>
      <point x="319" y="0"/>
      <point x="338" y="20"/>
      <point x="349" y="33" type="curve" smooth="yes"/>
      <point x="600" y="333" type="line" smooth="yes"/>
      <point x="607" y="341"/>
      <point x="611" y="348"/>
      <point x="613" y="355" type="curve" smooth="yes"/>
      <point x="614" y="362"/>
      <point x="613" y="369"/>
      <point x="610" y="377" type="curve" smooth="yes"/>
      <point x="485" y="677" type="line" smooth="yes"/>
      <point x="480" y="690"/>
      <point x="469" y="710"/>
      <point x="442" y="710" type="curve" smooth="yes"/>
    </contour>
    <contour>
      <point x="223" y="331" type="line"/>
      <point x="370" y="506" type="line"/>
      <point x="425" y="378" type="line"/>
      <point x="278" y="203" type="line"/>
    </contour>
  </outline>
</glyph>
<glyph name="Caron" format="1">
  <advance width="470"/>
  <unicode hex="F6CA"/>
  <outline>
    <contour>
      <point x="282" y="750" type="line" name="hr00" smooth="yes"/>
      <point x="297" y="750"/>
      <point x="307" y="755"/>
      <point x="323" y="769" type="curve" smooth="yes"/>
      <point x="461" y="891" type="line" smooth="yes"/>
      <point x="465" y="894"/>
      <point x="468" y="899"/>
      <point x="469" y="904" type="curve" smooth="yes"/>
      <point x="471" y="914"/>
      <point x="466" y="920"/>
      <point x="456" y="920" type="curve" smooth="yes"/>
      <point x="377" y="920" type="line" smooth="yes"/>
      <point x="364" y="920"/>
      <point x="351" y="920"/>
      <point x="336" y="913" type="curve" smooth="yes"/>
      <point x="235" y="871" type="line"/>
      <point x="152" y="913" type="line" smooth="yes"/>
      <point x="139" y="920"/>
      <point x="126" y="920"/>
      <point x="113" y="920" type="curve" smooth="yes"/>
      <point x="50" y="920" type="line" smooth="yes"/>
      <point x="40" y="920"/>
      <point x="33" y="914"/>
      <point x="31" y="904" type="curve" smooth="yes"/>
      <point x="30" y="899"/>
      <point x="31" y="894"/>
      <point x="33" y="891" type="curve" smooth="yes"/>
      <point x="119" y="769" type="line" smooth="yes"/>
      <point x="129" y="755"/>
      <point x="137" y="750"/>
      <point x="152" y="750" type="curve" smooth="yes"/>
    </contour>
  </outline>
</glyph>
<glyph name="Hungarumlaut" format="1">
  <advance width="579"/>
  <unicode hex="F6CF"/>
  <outline>
    <contour>
      <point x="40" y="781" type="line" name="hr00" smooth="yes"/>
      <point x="37" y="777"/>
      <point x="32" y="771"/>
      <point x="31" y="766" type="curve" smooth="yes"/>
      <point x="29" y="756"/>
      <point x="34" y="750"/>
      <point x="44" y="750" type="curve" smooth="yes"/>
      <point x="147" y="750" type="line" smooth="yes"/>
      <point x="160" y="750"/>
      <point x="174" y="755"/>
      <point x="184" y="764" type="curve" smooth="yes"/>
      <point x="324" y="888" type="line" smooth="yes"/>
      <point x="328" y="891"/>
      <point x="332" y="896"/>
      <point x="333" y="901" type="curve" smooth="yes"/>
      <point x="336" y="913"/>
      <point x="329" y="920"/>
      <point x="317" y="920" type="curve" smooth="yes"/>
      <point x="160" y="920" type="line" smooth="yes"/>
      <point x="139" y="920"/>
      <point x="128" y="914"/>
      <point x="119" y="901" type="curve" smooth="yes"/>
    </contour>
    <contour>
      <point x="285" y="781" type="line" smooth="yes"/>
      <point x="282" y="777"/>
      <point x="277" y="771"/>
      <point x="276" y="766" type="curve" smooth="yes"/>
      <point x="274" y="756"/>
      <point x="279" y="750"/>
      <point x="289" y="750" type="curve" smooth="yes"/>
      <point x="392" y="750" type="line" smooth="yes"/>
      <point x="405" y="750"/>
      <point x="419" y="755"/>
      <point x="429" y="764" type="curve" smooth="yes"/>
      <point x="569" y="888" type="line" smooth="yes"/>
      <point x="573" y="891"/>
      <point x="577" y="896"/>
      <point x="578" y="901" type="curve" smooth="yes"/>
      <point x="581" y="913"/>
      <point x="574" y="920"/>
      <point x="562" y="920" type="curve" smooth="yes"/>
      <point x="405" y="920" type="line" smooth="yes"/>
      <point x="384" y="920"/>
      <point x="373" y="914"/>
      <point x="364" y="901" type="curve" smooth="yes"/>
    </contour>
  </outline>
</glyph>
<glyph name="fi" format="1">
  <advance width="785"/>
  <unicode hex="FB01"/>
  <outline>
    <contour>
      <point x="651" y="0" type="line" name="hr00" smooth="yes"/>
      <point x="666" y="0"/>
      <point x="680" y="12"/>
      <point x="683" y="27" type="curve" smooth="yes"/>
      <point x="782" y="493" type="line" smooth="yes"/>
      <point x="785" y="508"/>
      <point x="776" y="520"/>
      <point x="761" y="520" type="curve" smooth="yes"/>
      <point x="388" y="520" type="line"/>
      <point x="391" y="532" type="line" smooth="yes"/>
      <point x="395" y="553"/>
      <point x="411" y="565"/>
      <point x="441" y="565" type="curve" smooth="yes"/>
      <point x="771" y="565" type="line" smooth="yes"/>
      <point x="786" y="565"/>
      <point x="800" y="577"/>
      <point x="803" y="592" type="curve" smooth="yes"/>
      <point x="829" y="713" type="line" smooth="yes"/>
      <point x="832" y="728"/>
      <point x="823" y="740"/>
      <point x="808" y="740" type="curve" smooth="yes"/>
      <point x="446" y="740" type="line" smooth="yes"/>
      <point x="301" y="740"/>
      <point x="198" y="701"/>
      <point x="163" y="537" type="curve" smooth="yes"/>
      <point x="159" y="520" type="line"/>
      <point x="90" y="520" type="line" smooth="yes"/>
      <point x="75" y="520"/>
      <point x="60" y="508"/>
      <point x="57" y="493" type="curve" smooth="yes"/>
      <point x="32" y="372" type="line"/>
      <point x="28" y="357"/>
      <point x="38" y="345"/>
      <point x="53" y="345" type="curve" smooth="yes"/>
      <point x="122" y="345" type="line"/>
      <point x="54" y="27" type="line" smooth="yes"/>
      <point x="51" y="12"/>
      <point x="61" y="0"/>
      <point x="76" y="0" type="curve" smooth="yes"/>
      <point x="251" y="0" type="line" smooth="yes"/>
      <point x="266" y="0"/>
      <point x="280" y="12"/>
      <point x="283" y="27" type="curve" smooth="yes"/>
      <point x="351" y="345" type="line"/>
      <point x="521" y="345" type="line"/>
      <point x="454" y="27" type="line" smooth="yes"/>
      <point x="451" y="12"/>
      <point x="461" y="0"/>
      <point x="476" y="0" type="curve" smooth="yes"/>
    </contour>
  </outline>
</glyph>
<glyph name="fl" format="1">
  <advance width="798"/>
  <unicode hex="FB02"/>
  <outline>
    <contour>
      <point x="663" y="0" type="line" name="hr00" smooth="yes"/>
      <point x="678" y="0"/>
      <point x="692" y="12"/>
      <point x="695" y="27" type="curve" smooth="yes"/>
      <point x="841" y="713" type="line" smooth="yes"/>
      <point x="844" y="728"/>
      <point x="834" y="740"/>
      <point x="819" y="740" type="curve" smooth="yes"/>
      <point x="644" y="740" type="line" smooth="yes"/>
      <point x="629" y="740"/>
      <point x="615" y="728"/>
      <point x="612" y="713" type="curve" smooth="yes"/>
      <point x="571" y="520" type="line"/>
      <point x="388" y="520" type="line"/>
      <point x="391" y="532" type="line" smooth="yes"/>
      <point x="395" y="553"/>
      <point x="411" y="565"/>
      <point x="441" y="565" type="curve" smooth="yes"/>
      <point x="502" y="565" type="line" smooth="yes"/>
      <point x="517" y="565"/>
      <point x="531" y="577"/>
      <point x="534" y="592" type="curve" smooth="yes"/>
      <point x="560" y="713" type="line" smooth="yes"/>
      <point x="563" y="728"/>
      <point x="554" y="740"/>
      <point x="539" y="740" type="curve" smooth="yes"/>
      <point x="446" y="740" type="line" smooth="yes"/>
      <point x="301" y="740"/>
      <point x="198" y="701"/>
      <point x="163" y="537" type="curve" smooth="yes"/>
      <point x="159" y="520" type="line"/>
      <point x="91" y="520" type="line" smooth="yes"/>
      <point x="76" y="520"/>
      <point x="61" y="508"/>
      <point x="58" y="493" type="curve" smooth="yes"/>
      <point x="33" y="372" type="line"/>
      <point x="29" y="357"/>
      <point x="39" y="345"/>
      <point x="54" y="345" type="curve" smooth="yes"/>
      <point x="122" y="345" type="line"/>
      <point x="54" y="27" type="line" smooth="yes"/>
      <point x="51" y="12"/>
      <point x="61" y="0"/>
      <point x="76" y="0" type="curve" smooth="yes"/>
      <point x="251" y="0" type="line" smooth="yes"/>
      <point x="266" y="0"/>
      <point x="280" y="12"/>
      <point x="283" y="27" type="curve" smooth="yes"/>
      <point x="351" y="345" type="line"/>
      <point x="533" y="345" type="line"/>
      <point x="466" y="27" type="line" smooth="yes"/>
      <point x="463" y="12"/>
      <point x="473" y="0"/>
      <point x="488" y="0" type="curve" smooth="yes"/>
    </contour>
  </outline>
</glyph>
<glyph name="asciitilde.cap" format="1">
  <advance width="549"/>
  <outline>
    <contour>
      <point x="186" y="466" type="curve" smooth="yes"/>
      <point x="118" y="466"/>
      <point x="78" y="430"/>
      <point x="69" y="386" type="curve" smooth="yes"/>
      <point x="46" y="278" type="line" smooth="yes"/>
      <point x="41" y="253"/>
      <point x="41" y="241"/>
      <point x="60" y="241" type="curve"/>
      <point x="69" y="242"/>
      <point x="76" y="246"/>
      <point x="82" y="250" type="curve" smooth="yes"/>
      <point x="94" y="259"/>
      <point x="124" y="276"/>
      <point x="165" y="276" type="curve" smooth="yes"/>
      <point x="248" y="276"/>
      <point x="298" y="234"/>
      <point x="387" y="234" type="curve" name="hr01" smooth="yes"/>
      <point x="455" y="234"/>
      <point x="494" y="270"/>
      <point x="504" y="314" type="curve" smooth="yes"/>
      <point x="527" y="422" type="line" smooth="yes"/>
      <point x="532" y="447"/>
      <point x="531" y="459"/>
      <point x="512" y="459" type="curve"/>
      <point x="503" y="458"/>
      <point x="496" y="454"/>
      <point x="491" y="450" type="curve" smooth="yes"/>
      <point x="479" y="441"/>
      <point x="449" y="424"/>
      <point x="408" y="424" type="curve" smooth="yes"/>
      <point x="325" y="424"/>
      <point x="275" y="466"/>
    </contour>
  </outline>
</glyph>
<glyph name="at.cap" format="1">
  <advance width="856"/>
  <outline>
    <contour>
      <point x="825" y="303" type="curve" smooth="yes"/>
      <point x="835" y="339"/>
      <point x="847" y="391"/>
      <point x="851" y="425" type="curve" smooth="yes"/>
      <point x="874" y="601"/>
      <point x="793" y="753"/>
      <point x="500" y="753" type="curve" smooth="yes"/>
      <point x="238" y="753"/>
      <point x="113" y="581"/>
      <point x="67" y="425" type="curve" smooth="yes"/>
      <point x="57" y="390"/>
      <point x="36" y="291"/>
      <point x="31" y="254" type="curve" smooth="yes"/>
      <point x="8" y="75"/>
      <point x="124" y="-72"/>
      <point x="385" y="-72" type="curve" smooth="yes"/>
      <point x="595" y="-72"/>
      <point x="667" y="-4"/>
      <point x="743" y="64" type="curve"/>
      <point x="760" y="80"/>
      <point x="748" y="107"/>
      <point x="723" y="107" type="curve" smooth="yes"/>
      <point x="625" y="107" type="line" smooth="yes"/>
      <point x="611" y="107"/>
      <point x="603" y="103"/>
      <point x="586" y="92" type="curve" smooth="yes"/>
      <point x="545" y="66"/>
      <point x="499" y="49"/>
      <point x="390" y="49" type="curve" name="hr01" smooth="yes"/>
      <point x="206" y="49"/>
      <point x="144" y="128"/>
      <point x="158" y="259" type="curve" smooth="yes"/>
      <point x="162" y="297"/>
      <point x="181" y="385"/>
      <point x="192" y="420" type="curve" smooth="yes"/>
      <point x="232" y="540"/>
      <point x="320" y="632"/>
      <point x="494" y="632" type="curve" smooth="yes"/>
      <point x="699" y="632"/>
      <point x="750" y="568"/>
      <point x="725" y="420" type="curve" smooth="yes"/>
      <point x="720" y="386"/>
      <point x="712" y="354"/>
      <point x="704" y="318" type="curve" smooth="yes"/>
      <point x="698" y="288"/>
      <point x="681" y="269"/>
      <point x="651" y="269" type="curve" smooth="yes"/>
      <point x="622" y="269"/>
      <point x="611" y="287"/>
      <point x="618" y="319" type="curve" smooth="yes"/>
      <point x="659" y="512" type="line" smooth="yes"/>
      <point x="662" y="527"/>
      <point x="652" y="539"/>
      <point x="637" y="539" type="curve" smooth="yes"/>
      <point x="565" y="539" type="line" smooth="yes"/>
      <point x="550" y="539"/>
      <point x="536" y="527"/>
      <point x="533" y="512" type="curve" smooth="yes"/>
      <point x="531" y="503" type="line"/>
      <point x="515" y="532"/>
      <point x="491" y="547"/>
      <point x="431" y="547" type="curve" smooth="yes"/>
      <point x="332" y="547"/>
      <point x="270" y="464"/>
      <point x="245" y="342" type="curve" smooth="yes"/>
      <point x="219" y="220"/>
      <point x="279" y="138"/>
      <point x="369" y="138" type="curve" smooth="yes"/>
      <point x="452" y="138"/>
      <point x="484" y="170"/>
      <point x="503" y="194" type="curve"/>
      <point x="521" y="173"/>
      <point x="562" y="148"/>
      <point x="645" y="148" type="curve" smooth="yes"/>
      <point x="731" y="148"/>
      <point x="798" y="202"/>
    </contour>
    <contour>
      <point x="370" y="342" type="curve" smooth="yes"/>
      <point x="383" y="407"/>
      <point x="414" y="426"/>
      <point x="450" y="426" type="curve" smooth="yes"/>
      <point x="489" y="426"/>
      <point x="510" y="407"/>
      <point x="497" y="342" type="curve" smooth="yes"/>
      <point x="482" y="276"/>
      <point x="454" y="259"/>
      <point x="415" y="259" type="curve" smooth="yes"/>
      <point x="379" y="259"/>
      <point x="356" y="277"/>
    </contour>
  </outline>
</glyph>
<glyph name="minus.cap" format="1">
  <advance width="642"/>
  <outline>
    <contour>
      <point x="111" y="448" type="line" name="hr00" smooth="yes"/>
      <point x="96" y="448"/>
      <point x="81" y="436"/>
      <point x="78" y="421" type="curve" smooth="yes"/>
      <point x="55" y="312" type="line" smooth="yes"/>
      <point x="52" y="297"/>
      <point x="61" y="285"/>
      <point x="76" y="285" type="curve" smooth="yes"/>
      <point x="560" y="285" type="line" smooth="yes"/>
      <point x="575" y="285"/>
      <point x="590" y="297"/>
      <point x="593" y="312" type="curve" smooth="yes"/>
      <point x="616" y="421" type="line" smooth="yes"/>
      <point x="619" y="436"/>
      <point x="610" y="448"/>
      <point x="595" y="448" type="curve" smooth="yes"/>
    </contour>
  </outline>
</glyph>
<glyph name="one.otlf" format="1">
  <advance width="700"/>
  <outline>
    <contour>
      <point x="575" y="0" type="line" name="hr00" smooth="yes"/>
      <point x="590" y="0"/>
      <point x="604" y="12"/>
      <point x="607" y="27" type="curve" smooth="yes"/>
      <point x="640" y="179" type="line" smooth="yes"/>
      <point x="643" y="194"/>
      <point x="633" y="206"/>
      <point x="618" y="206" type="curve" smooth="yes"/>
      <point x="488" y="206" type="line"/>
      <point x="588" y="673" type="line" smooth="yes"/>
      <point x="591" y="688"/>
      <point x="581" y="700"/>
      <point x="566" y="700" type="curve" smooth="yes"/>
      <point x="377" y="700" type="line" smooth="yes"/>
      <point x="368" y="700"/>
      <point x="362" y="698"/>
      <point x="354" y="693" type="curve" smooth="yes"/>
      <point x="102" y="527" type="line"/>
      <point x="87" y="519"/>
      <point x="80" y="501"/>
      <point x="84" y="488" type="curve"/>
      <point x="154" y="364" type="line" smooth="yes"/>
      <point x="161" y="351"/>
      <point x="175" y="346"/>
      <point x="190" y="356" type="curve" smooth="yes"/>
      <point x="283" y="417" type="line"/>
      <point x="238" y="206" type="line"/>
      <point x="68" y="206" type="line" smooth="yes"/>
      <point x="53" y="206"/>
      <point x="39" y="194"/>
      <point x="36" y="179" type="curve" smooth="yes"/>
      <point x="3" y="27" type="line" smooth="yes"/>
      <point x="0" y="12"/>
      <point x="10" y="0"/>
      <point x="25" y="0" type="curve" smooth="yes"/>
    </contour>
  </outline>
</glyph>
<glyph name="pedageshhebrew.001" format="1">
  <advance width="597"/>
  <outline>
    <contour>
      <point x="318" y="226" type="line" smooth="yes"/>
      <point x="331" y="226"/>
      <point x="342" y="235"/>
      <point x="345" y="248" type="curve" smooth="yes"/>
      <point x="358" y="311" type="line" smooth="yes"/>
      <point x="361" y="324"/>
      <point x="354" y="333"/>
      <point x="341" y="333" type="curve" smooth="yes"/>
      <point x="328" y="333" type="line" smooth="yes"/>
      <point x="315" y="333"/>
      <point x="304" y="324"/>
      <point x="301" y="311" type="curve" smooth="yes"/>
      <point x="288" y="248" type="line" smooth="yes"/>
      <point x="285" y="235"/>
      <point x="292" y="226"/>
      <point x="305" y="226" type="curve" smooth="yes"/>
    </contour>
    <component base="pehebrew" xOffset="1"/>
    <contour>
      <point x="231" y="0" type="move" name="bottom"/>
    </contour>
    <contour>
      <point x="342" y="520" type="move" name="top"/>
    </contour>
    <contour>
      <point x="-19" y="0" type="move" name="bottomleft"/>
    </contour>
    <contour>
      <point x="92" y="520" type="move" name="topleft"/>
    </contour>
    <contour>
      <point x="316" y="260" type="move" name="center"/>
    </contour>
  </outline>
</glyph>
<glyph name="seven.otlf" format="1">
  <advance width="700"/>
  <outline>
    <contour>
      <point x="177" y="700" type="line" name="hr00" smooth="yes"/>
      <point x="162" y="700"/>
      <point x="148" y="688"/>
      <point x="145" y="673" type="curve" smooth="yes"/>
      <point x="112" y="522" type="line" smooth="yes"/>
      <point x="109" y="507"/>
      <point x="119" y="495"/>
      <point x="134" y="495" type="curve" smooth="yes"/>
      <point x="399" y="495" type="line"/>
      <point x="84" y="31" type="line"/>
      <point x="74" y="13"/>
      <point x="79" y="0"/>
      <point x="98" y="0" type="curve" smooth="yes"/>
      <point x="301" y="0" type="line" smooth="yes"/>
      <point x="326" y="0"/>
      <point x="341" y="16"/>
      <point x="346" y="23" type="curve" smooth="yes"/>
      <point x="664" y="490" type="line" smooth="yes"/>
      <point x="672" y="503"/>
      <point x="683" y="518"/>
      <point x="687" y="541" type="curve"/>
      <point x="716" y="673" type="line" smooth="yes"/>
      <point x="719" y="688"/>
      <point x="710" y="700"/>
      <point x="694" y="700" type="curve" smooth="yes"/>
    </contour>
  </outline>
</glyph>
<glyph name="three.otlf" format="1">
  <advance width="700"/>
  <outline>
    <contour>
      <point x="651" y="506" type="line" smooth="yes"/>
      <point x="663" y="513"/>
      <point x="676" y="527"/>
      <point x="680" y="546" type="curve" smooth="yes"/>
      <point x="707" y="673" type="line" smooth="yes"/>
      <point x="710" y="688"/>
      <point x="700" y="700"/>
      <point x="685" y="700" type="curve" smooth="yes"/>
      <point x="173" y="700" type="line" smooth="yes"/>
      <point x="158" y="700"/>
      <point x="144" y="688"/>
      <point x="141" y="673" type="curve" smooth="yes"/>
      <point x="111" y="532" type="line" smooth="yes"/>
      <point x="107" y="517"/>
      <point x="117" y="505"/>
      <point x="132" y="505" type="curve" smooth="yes"/>
      <point x="385" y="505" type="line"/>
      <point x="240" y="429" type="line" smooth="yes"/>
      <point x="228" y="423"/>
      <point x="215" y="409"/>
      <point x="211" y="389" type="curve" smooth="yes"/>
      <point x="194" y="308" type="line" smooth="yes"/>
      <point x="191" y="293"/>
      <point x="200" y="281"/>
      <point x="215" y="281" type="curve" smooth="yes"/>
      <point x="340" y="281" type="line" smooth="yes"/>
      <point x="384" y="281"/>
      <point x="403" y="267"/>
      <point x="397" y="237" type="curve" smooth="yes"/>
      <point x="391" y="208"/>
      <point x="367" y="184"/>
      <point x="320" y="184" type="curve" smooth="yes"/>
      <point x="278" y="184"/>
      <point x="264" y="193"/>
      <point x="255" y="204" type="curve" smooth="yes"/>
      <point x="248" y="213"/>
      <point x="242" y="220"/>
      <point x="224" y="220" type="curve" name="hr01" smooth="yes"/>
      <point x="23" y="220" type="line" smooth="yes"/>
      <point x="11" y="220"/>
      <point x="-1" y="210"/>
      <point x="-3" y="198" type="curve" smooth="yes"/>
      <point x="-17" y="119"/>
      <point x="66" y="-10"/>
      <point x="297" y="-10" type="curve" smooth="yes"/>
      <point x="496" y="-10"/>
      <point x="621" y="70"/>
      <point x="650" y="209" type="curve" smooth="yes"/>
      <point x="677" y="335"/>
      <point x="612" y="401"/>
      <point x="517" y="426" type="curve"/>
    </contour>
  </outline>
</glyph>
